<?xml version="1.0" encoding="UTF-8"?>
<svg version="1.1" xmlns="http://www.w3.org/2000/svg" width="531" height="670">
<path d="M0 0 C175.23 0 350.46 0 531 0 C531 221.1 531 442.2 531 670 C355.77 670 180.54 670 0 670 C0 448.9 0 227.8 0 0 Z " fill="#FEFEFE" transform="translate(0,0)"/>
<path d="M0 0 C12.70961085 10.73154977 16.04322736 26.33467438 17.92578125 42.19921875 C18.08530273 43.52469727 18.08530273 43.52469727 18.24804688 44.87695312 C18.45888282 46.67757067 18.65666255 48.4797618 18.84179688 50.28320312 C19.62126393 56.50526467 21.07193278 60.14487585 25.25 64.875 C28.39323478 66.37138414 28.39323478 66.37138414 31.25 66.875 C30.74534413 73.18319833 29.24613674 77.20453029 24.453125 81.4765625 C17.15445414 87.21931516 10.43319092 89.33915989 1.25 89.875 C5.77751073 96.30114426 10.93566198 98.43688733 18.25 100.875 C20.04739926 100.98630683 21.84532991 101.09338927 23.64477539 101.16430664 C43.01785729 101.9528897 43.01785729 101.9528897 49.1875 108.5 C50.25680407 109.92317448 51.28031827 111.38216573 52.25 112.875 C52.67152344 113.51050781 53.09304688 114.14601563 53.52734375 114.80078125 C59.22908096 125.25058432 57.31625886 140.5006627 57.42578125 152.07421875 C57.43782593 153.2468779 57.44987061 154.41953705 57.46228027 155.62773132 C57.51060364 160.50321678 57.5581932 165.37844359 57.57592773 170.25415039 C57.62885654 189.41878066 57.62885654 189.41878066 62.25 207.875 C66.56171864 223.61238033 68.20847365 239.60547198 68.90893555 255.86328125 C69.04283403 258.85379547 69.23110245 261.76355809 69.73193359 264.71704102 C70.67337468 270.45574997 70.9365389 276.26372765 71.3125 282.0625 C71.35669067 282.74229919 71.40088135 283.42209839 71.44641113 284.12249756 C72.06866308 293.91394973 72.4602569 303.68624238 72.5 313.5 C72.509104 314.55727295 72.51820801 315.6145459 72.52758789 316.70385742 C72.47553217 330.12892084 71.06757321 340.05484249 62.125 350.3125 C58.15443589 353.62130343 55.42841071 354.11038231 50.25 353.875 C49.92 352.555 49.59 351.235 49.25 349.875 C50.3946875 349.00875 50.3946875 349.00875 51.5625 348.125 C55.14297917 345.12738953 57.57764924 342.58145534 58.25 337.875 C58.40011907 333.74672556 58.42205089 329.85997302 57.25 325.875 C56.59 325.545 55.93 325.215 55.25 324.875 C55.14042969 325.44347656 55.03085937 326.01195312 54.91796875 326.59765625 C53.87061834 331.69816758 52.45728247 336.159442 50.25 340.875 C48.3125 340.5 48.3125 340.5 46.25 339.875 C42.60498153 332.58496305 45.8089698 319.22087368 48.23828125 311.89453125 C48.91138021 310.237484 49.61069826 308.59058799 50.34765625 306.9609375 C54.3689072 297.66505868 53.60503432 283.74787338 50.1640625 274.421875 C48.99009094 271.15080894 48.18934938 267.81117486 47.375 264.4375 C46.10091015 259.23908973 44.77536592 254.05865427 43.3894043 248.88891602 C41.48844306 241.78662288 39.67875073 234.67288371 38.0625 227.5 C37.83046875 226.48607178 37.83046875 226.48607178 37.59375 225.45166016 C35.15538519 214.39155543 33.91692262 203.29019361 33.1875 192 C32.54380278 181.90235883 32.54380278 181.90235883 31.25 171.875 C27.70423253 179.13662711 25.8810644 185.22338989 25.55859375 193.28515625 C24.87612588 201.22424448 22.76614944 209.32655169 20.25 216.875 C19.3078541 228.75221634 21.47427853 236.36508633 27.5625 246.375 C37.75668093 263.43822129 43.38899082 283.79308069 43.41796875 303.625 C43.42129715 304.44137939 43.42462555 305.25775879 43.42805481 306.09887695 C43.43308926 307.81998131 43.43546422 309.54109532 43.43530273 311.26220703 C43.43747085 313.84034199 43.45561315 316.41803526 43.47460938 318.99609375 C43.54181554 338.80751918 40.10955545 357.18434741 34.875 376.25 C32.44170386 385.11824141 30.2422597 393.99478589 28.375 403 C28.17213379 403.97630371 27.96926758 404.95260742 27.76025391 405.95849609 C25.71546099 416.09055986 25.15071182 425.51362247 25.29296875 435.84765625 C25.30503746 437.21600976 25.3160267 438.58437317 25.32600403 439.95274353 C25.36822969 445.71390326 25.41489799 451.47484574 25.49682617 457.2355957 C25.73888872 474.82529329 25.18146005 491.62923445 21.25 508.875 C20.92255798 510.33517296 20.92255798 510.33517296 20.58850098 511.82484436 C19.54890449 516.44293071 18.48736536 521.05579874 17.421875 525.66796875 C10.95276425 552.76997346 10.95276425 552.76997346 17.25 578.875 C17.70890625 579.68710937 18.1678125 580.49921875 18.640625 581.3359375 C20.65104689 584.77481705 22.75448076 588.13397349 24.96875 591.4453125 C28.53696965 596.949123 30.22099887 600.29378545 29.25 606.875 C28.01739587 610.83230799 27.07976805 613.15736277 23.9375 615.875 C20.50940481 617.1505703 18.7678077 616.82396945 15.25 615.875 C9.44773075 611.08812787 5.559136 604.8922898 1.9296875 598.40234375 C-0.73193807 594.39752573 -4.17017104 591.26847301 -7.67578125 588.00390625 C-10.32627674 585.28352952 -10.69960964 583.50487947 -11 579.75 C-10.78886113 576.47734755 -10.40678824 574.6035992 -9.3125 571.625 C-5.68285541 561.52284213 -6.4778255 550.06010077 -6.4375 539.4375 C-6.43355225 538.67310608 -6.42960449 537.90871216 -6.42553711 537.12115479 C-6.39773084 525.47848683 -7.39779359 514.35798831 -9.31591797 502.85668945 C-11.35481218 490.20170672 -12.01792546 476.91254385 -10.23046875 464.171875 C-8.07593556 447.67080561 -10.79058171 430.72432766 -12.41479492 414.27142334 C-12.69539288 411.40621187 -12.96718293 408.54019377 -13.23882866 405.67412186 C-13.50489297 402.87507695 -13.77533589 400.07646854 -14.04715347 397.27797699 C-14.23607853 395.32865707 -14.42238904 393.3790843 -14.60861206 391.42950439 C-15.16752126 385.79837578 -15.82175615 380.24678123 -16.83203125 374.67773438 C-17.82913499 368.95758577 -18.0086715 363.43639764 -17.9453125 357.640625 C-17.9424826 356.6365863 -17.93965271 355.63254761 -17.93673706 354.5980835 C-17.9256815 351.44025958 -17.90060588 348.28273591 -17.875 345.125 C-17.86495125 342.96354581 -17.85582875 340.8020871 -17.84765625 338.640625 C-17.82579043 333.38531692 -17.79246279 328.13017992 -17.75 322.875 C-19.07 322.875 -20.39 322.875 -21.75 322.875 C-21.74476318 323.84622803 -21.73952637 324.81745605 -21.73413086 325.81811523 C-21.71567888 329.51032546 -21.70442529 333.20253187 -21.69506836 336.89477539 C-21.69011804 338.47616263 -21.68335608 340.05754549 -21.67456055 341.63891602 C-21.51948523 370.29136155 -21.51948523 370.29136155 -24.25 383.875 C-25.42185759 390.2778688 -26.07173074 396.5155909 -26.33374023 403.01464844 C-26.5746615 408.22891496 -27.17806342 413.33410004 -27.88769531 418.50439453 C-30.00438138 434.05352174 -31.90143694 451.22846634 -29.25097656 466.80834961 C-27.27391706 478.91061297 -29.24438902 491.29822795 -30.88870239 503.31964111 C-36.67879591 540.25295108 -36.67879591 540.25295108 -28.75 575.875 C-28.11681261 581.25709284 -28.96863756 584.07798111 -32.1953125 588.20703125 C-33.75679734 589.88229262 -35.37990843 591.22311232 -37.1875 592.625 C-41.15053017 595.8245893 -42.99113101 599.70261677 -45.27734375 604.18359375 C-47.30971393 607.89792546 -49.78051599 610.87999034 -52.75 613.875 C-53.389375 614.535 -54.02875 615.195 -54.6875 615.875 C-58.06541233 617.51277567 -60.21623878 616.92892879 -63.75 615.875 C-67.26689214 613.10638278 -68.43478362 611.53466201 -69.265625 607.16015625 C-69.72039132 599.12939641 -67.39889911 594.24610491 -62.75 587.875 C-53.19765213 574.69369645 -50.94545308 561.92156997 -53.328125 546.015625 C-54.06808532 542.28433573 -54.90379699 538.58347493 -55.75 534.875 C-56.21887984 532.37695654 -56.67686942 529.876849 -57.125 527.375 C-58.1632303 521.67397784 -59.37095482 516.02282474 -60.64233398 510.36938477 C-65.18558024 490.06959777 -67.55258715 469.88657675 -64.98803711 449.09399414 C-62.32855893 424.30220213 -68.58098195 400.40896082 -74.9453125 376.69140625 C-77.27622214 367.98169417 -79.11793831 359.22795725 -80.8125 350.375 C-80.98587891 349.48941406 -81.15925781 348.60382813 -81.33789062 347.69140625 C-88.48943586 310.37184838 -83.18091783 274.89376404 -64.81835938 241.81347656 C-58.70912578 230.72862402 -58.75244294 222.80541404 -62.1159668 210.61987305 C-63.94655198 203.7262389 -64.80427995 196.76385393 -65.53442383 189.67675781 C-66.25305645 183.46713673 -67.88882081 178.43340125 -70.75 172.875 C-71.94587321 179.34200364 -72.80308391 185.64586431 -72.99316406 192.21240234 C-73.7627586 217.60360249 -80.36102531 243.50703275 -88.6484375 267.43359375 C-94.18917245 284.74347845 -93.73760642 298.2651975 -87.41430664 314.97485352 C-86.16697993 318.54263882 -85.62676721 321.63654635 -85.65234375 325.421875 C-85.65556641 326.26621094 -85.65878906 327.11054688 -85.66210938 327.98046875 C-85.67048828 328.85316406 -85.67886719 329.72585938 -85.6875 330.625 C-85.69201172 331.51316406 -85.69652344 332.40132813 -85.70117188 333.31640625 C-85.712926 335.50267329 -85.72935751 337.68880179 -85.75 339.875 C-87.4 340.205 -89.05 340.535 -90.75 340.875 C-90.93175781 340.29492188 -91.11351562 339.71484375 -91.30078125 339.1171875 C-92.7918106 334.48352707 -94.43333576 330.17737645 -96.75 325.875 C-98.72300336 329.82100671 -98.2007351 334.57522435 -97.75 338.875 C-96.69306152 341.55097607 -95.39868267 343.47691612 -93.75 345.875 C-93.42 346.865 -93.09 347.855 -92.75 348.875 C-91.76 349.205 -90.77 349.535 -89.75 349.875 C-90.08 351.195 -90.41 352.515 -90.75 353.875 C-97.16278023 353.60780082 -101.27488477 351.50994077 -105.75 346.875 C-111.641787 338.23073675 -113.13283215 328.20909662 -113.0625 317.9375 C-113.05831055 317.03620361 -113.05412109 316.13490723 -113.04980469 315.20629883 C-112.49913365 278.51930559 -110.65665478 237.76895468 -100.74975586 202.29321289 C-96.55273777 186.82056244 -97.23681366 171.03316375 -97.32373047 155.13305664 C-97.52156526 118.15993166 -97.52156526 118.15993166 -87.75 106.875 C-83.20003961 102.32503961 -76.75339403 101.86445078 -70.6171875 101.77734375 C-60.18443627 101.60475339 -52.25865198 100.61820625 -43.75 93.875 C-41.91450633 91.27985509 -41.91450633 91.27985509 -40.75 88.875 C-41.63300781 88.66746094 -42.51601563 88.45992188 -43.42578125 88.24609375 C-52.91678711 85.80962715 -63.23435756 82.64253586 -68.75 73.875 C-68.75 73.215 -68.75 72.555 -68.75 71.875 C-67.986875 71.33875 -67.22375 70.8025 -66.4375 70.25 C-62.97567741 67.19071492 -62.00771469 64.22601298 -60.75 59.875 C-60.57742676 59.29186035 -60.40485352 58.7087207 -60.22705078 58.10791016 C-59.65283288 55.42019424 -59.58710956 52.8968176 -59.5390625 50.1484375 C-59.51070313 49.03339844 -59.48234375 47.91835937 -59.453125 46.76953125 C-59.40156526 44.44676494 -59.35714449 42.12382777 -59.3203125 39.80078125 C-58.89070917 24.20976043 -53.76722271 11.86430058 -42.34375 1.04296875 C-29.41135131 -9.766491 -13.69143807 -9.83273057 0 0 Z " fill="#F9AE8A" transform="translate(423.75,31.125)"/>
<path d="M0 0 C13.67911519 9.70584618 18.19689603 22.56880776 20.94824219 38.40820312 C21.73537463 43.11447009 22.35686815 47.82576646 22.9375 52.5625 C23.68727205 57.82299743 24.43109439 62.86701205 28 67 C30.33797927 68.47317834 32.32401729 69.1766207 35 70 C35.50846012 75.33883127 34.28778412 77.82362558 31 82 C25.96460787 87.87462415 19.43259115 91.06106318 12 93 C8.625 93.125 8.625 93.125 6 93 C9.33692708 99.47562087 14.22156077 101.78315195 21 104 C26.30433853 104.79957727 31.67329535 104.80147443 37.02685547 104.92578125 C43.99624093 105.18793086 49.12858747 106.78872148 54 112 C60.38956988 121.75822067 61.43407674 132.41234247 61.40625 143.79296875 C61.42281581 145.78681613 61.43939856 147.78066352 61.45691681 149.77450275 C61.48349377 153.24546129 61.49121434 156.71645826 61.5 160.1875 C61.51050171 164.31720573 61.52472632 168.44667744 61.56091309 172.57624817 C61.58210547 175.13630243 61.5909062 177.69650338 61.58459473 180.25663757 C61.6760941 191.00603648 63.48598829 200.99670999 66.5 211.3125 C71.24524954 228.38100489 72.25091624 246.29400457 73.78979492 263.87255859 C74.05145894 266.85716122 74.32198509 269.84073007 74.60131836 272.82373047 C76.02222008 288.01223055 77.25357854 303.15015426 77.36328125 318.4140625 C77.37779831 319.51551605 77.39231537 320.6169696 77.40727234 321.75180054 C77.35027297 333.45939133 75.25147489 344.28919847 67 353 C63.39157662 355.70460576 60.537879 357.12815658 56 356.75 C55.01 356.37875 55.01 356.37875 54 356 C54.58931772 352.64825544 55.69613428 350.91304802 58 348.4375 C61.56965754 344.58467251 62.15281224 341.64760168 62.1875 336.4375 C62.20167969 335.46683594 62.21585938 334.49617188 62.23046875 333.49609375 C62.25207746 330.82601084 62.25207746 330.82601084 60 329 C59.73445312 329.91523438 59.46890625 330.83046875 59.1953125 331.7734375 C58.66550781 333.55621094 58.66550781 333.55621094 58.125 335.375 C57.77695313 336.55835938 57.42890625 337.74171875 57.0703125 338.9609375 C56 342 56 342 54 344 C51.875 343.625 51.875 343.625 50 343 C49.36560783 330.03020451 49.6518249 317.6120123 56.13671875 305.95703125 C62.51703594 291.49305428 52.48985813 267.81494809 48 254 C44.63266048 243.33015557 42.42501047 232.59882321 40.47143555 221.59448242 C40.15713969 219.86479723 39.82523446 218.13821946 39.47583008 216.4152832 C37.97205598 208.8266967 37.40419494 201.2771703 36.9375 193.5625 C36.78317874 191.0844321 36.62576453 188.60655434 36.46484375 186.12890625 C36.36610962 184.50577515 36.36610962 184.50577515 36.26538086 182.84985352 C36.0416455 180.44721978 35.67268538 178.30958801 35 176 C30.79442951 185.89057091 28.97200356 195.38606298 27.67578125 206.01953125 C26.95064799 211.80819222 25.84618915 217.46143256 24 223 C22.78293512 233.69420944 26.46443569 242.12111882 32.49609375 250.72265625 C47.40002438 273.29146549 48.73916647 301.91868244 48 328 C47.98066406 329.3096875 47.96132812 330.619375 47.94140625 331.96875 C47.26175672 350.25750109 42.04446642 368.45680579 37.49951172 386.08276367 C31.79851538 408.21460057 26.69653729 430.83236685 29.76416016 453.75292969 C32.04328256 475.4682947 29.68172261 498.57887109 23.68481445 519.52539062 C22.74724498 522.91334221 22.11352716 526.28795389 21.5 529.75 C20.78434847 533.78656378 20.04585962 537.79645869 19.14453125 541.796875 C15.48853342 558.06863997 15.25235359 573.21252929 24.4375 587.8125 C26.0852827 590.27707154 27.75937739 592.6859875 29.5625 595.0390625 C33.6575784 600.69306279 34.07484947 606.14660197 33 613 C30.99269405 616.5844749 28.92111 618.69296333 25 620 C22.25 620.125 22.25 620.125 20 620 C19.505 618.515 19.505 618.515 19 617 C18.39027344 616.70351563 17.78054687 616.40703125 17.15234375 616.1015625 C14.35832956 614.67159516 13.30245204 612.97086378 11.5625 610.375 C10.95535156 609.48039063 10.34820312 608.58578125 9.72265625 607.6640625 C8.2514393 605.38884717 6.86752547 603.08788183 5.5 600.75 C3.35299133 597.21667779 0.77142855 594.94424602 -2.41796875 592.359375 C-5.65255763 589.58002455 -6.84028724 587.1179893 -7.4375 582.9375 C-6.92820175 578.35381573 -5.58871229 574.4638467 -3.97265625 570.16015625 C2.41666104 549.40129005 -2.11104596 523.56776487 -5.22119141 502.52709961 C-6.895771 491.08321112 -7.99711298 480.13815484 -6 468.625 C-4.06932145 457.12426734 -4.75126947 446.4826398 -6.79174805 435.1159668 C-8.10830967 427.34158225 -8.56301793 419.55270288 -9 411.6875 C-9.6689977 399.73284122 -10.93159649 387.98637242 -12.69042969 376.14453125 C-15.13196126 359.23095608 -14.13636011 341.98452522 -13 325 C-14.65 325.33 -16.3 325.66 -18 326 C-17.98952637 327.28874023 -17.97905273 328.57748047 -17.96826172 329.90527344 C-17.93145379 334.78838203 -17.90888368 339.67147901 -17.89013672 344.5546875 C-17.8802151 346.64910966 -17.86667355 348.74351851 -17.84912109 350.83789062 C-17.70960491 367.94093306 -18.71556225 384.52559616 -21.5 401.40625 C-22.30289534 407.17706029 -22.75527359 412.9779356 -23.24560547 418.7824707 C-23.70242478 424.08474077 -24.30371852 429.30514177 -25.125 434.5625 C-25.99428295 440.70908337 -26.18211806 446.74126993 -26.1875 452.9375 C-26.18830566 453.81414307 -26.18911133 454.69078613 -26.18994141 455.59399414 C-26.15675511 459.45798516 -26.02611262 463.23524538 -25.5078125 467.06640625 C-23.77012959 480.5267654 -25.10490297 493.75670187 -27 507.125 C-28.68396393 519.05738134 -29.37537849 530.76132448 -29.3125 542.8125 C-29.30968018 543.54784973 -29.30686035 544.28319946 -29.30395508 545.04083252 C-29.48949086 560.91410883 -29.48949086 560.91410883 -25.64453125 576.09375 C-24.18928628 580.39774724 -24.3623932 584.47682821 -26.125 588.6875 C-28.02011775 591.0248119 -30.10164556 592.76244203 -32.453125 594.625 C-36.11584976 597.88075534 -38.51539588 602.09763371 -40.8125 606.375 C-43.9703121 612.00025232 -48.08195172 617.77441972 -54.125 620.3125 C-58.09460652 619.88102103 -60.02196713 618.63962004 -63 616 C-65.20332879 611.59334242 -65.86330692 606.85943893 -65 602 C-62.99359295 597.16051174 -59.98097609 592.96589574 -57 588.6875 C-47.42020816 574.14408545 -47.16543989 559.08026953 -50.125 542.25 C-50.71972359 539.48878334 -51.34309879 536.74616475 -52 534 C-52.73946375 530.8511962 -53.47641141 527.70183128 -54.21044922 524.55175781 C-54.71564573 522.39912702 -55.22947884 520.24849338 -55.75439453 518.10058594 C-56.55665634 514.74338032 -57.28973056 511.37787753 -58 508 C-58.20955322 507.05087738 -58.20955322 507.05087738 -58.42333984 506.08258057 C-62.04852649 489.18910838 -61.21917544 472.03199726 -60.96887207 454.8651123 C-60.54301722 430.28239274 -60.54301722 430.28239274 -64 406 C-64.28230469 404.72141113 -64.56460938 403.44282227 -64.85546875 402.12548828 C-65.68428567 398.58848393 -66.5758016 395.07566465 -67.5 391.5625 C-67.79519531 390.41330078 -68.09039062 389.26410156 -68.39453125 388.08007812 C-68.9769052 385.81343765 -69.56218255 383.54754078 -70.15063477 381.2824707 C-75.43152413 360.87385975 -79.37104322 341.20916616 -79.31567383 320.0847168 C-79.31250744 317.56840859 -79.33610526 315.05327414 -79.36132812 312.53710938 C-79.46475153 286.14929768 -71.19244757 262.87353979 -58.12890625 240.19921875 C-55.88842529 235.83454476 -55.8385613 231.9463885 -55.8125 227.0625 C-55.79832031 225.85722656 -55.78414062 224.65195313 -55.76953125 223.41015625 C-55.99428488 220.08456436 -56.65837905 218.0074254 -58 215 C-59.21343358 210.0451462 -59.92834193 205.00193384 -60.39453125 199.92578125 C-61.25160975 190.81957908 -62.81373484 183.29263977 -67 175 C-67.71903674 178.97999945 -68.17914293 182.864875 -68.39453125 186.90234375 C-69.24372731 201.32835845 -70.70511071 215.34420709 -73.51074219 229.52294922 C-73.96565652 231.82612327 -74.39721374 234.13221093 -74.8203125 236.44140625 C-75.91727722 242.28279581 -77.23016497 247.87264404 -79.1550293 253.49707031 C-80.74159991 258.19672993 -82.17414632 262.94456097 -83.625 267.6875 C-83.93695313 268.69361328 -84.24890625 269.69972656 -84.5703125 270.73632812 C-89.2677863 286.09423278 -89.97153362 300.93204419 -84 316 C-81.37769529 324.25093363 -80.03920612 332.3278994 -81 341 C-81.66 341.99 -82.32 342.98 -83 344 C-84.859375 343.90234375 -84.859375 343.90234375 -87 343 C-88.265625 340.12890625 -88.265625 340.12890625 -89.25 336.5625 C-89.58515625 335.38816406 -89.9203125 334.21382813 -90.265625 333.00390625 C-91 330 -91 330 -91 328 C-93.12575659 328.78193273 -93.12575659 328.78193273 -93.625 330.625 C-94.73631272 337.66331391 -93.68035723 342.94446015 -90 349 C-87.3908613 351.32277416 -87.3908613 351.32277416 -85 353 C-85 353.99 -85 354.98 -85 356 C-89.07074692 356.97697926 -91.24259638 357.3709732 -95.0625 355.5 C-102.63477619 349.05550963 -106.90210994 342.84483664 -107.80151367 332.83569336 C-110.60648505 292.76220922 -106.40133108 249.66663972 -97.58154297 210.58203125 C-97.19192449 208.85213831 -96.81081372 207.12030847 -96.43798828 205.38671875 C-96.26380371 204.57847656 -96.08961914 203.77023438 -95.91015625 202.9375 C-95.75812744 202.22464844 -95.60609863 201.51179687 -95.44946289 200.77734375 C-95 199 -95 199 -94 197 C-93.89158397 195.45225749 -93.8437167 193.90007137 -93.82641602 192.34863281 C-93.81292618 191.37871399 -93.79943634 190.40879517 -93.78553772 189.40948486 C-93.77509933 188.35138611 -93.76466095 187.29328735 -93.75390625 186.203125 C-93.7208875 183.94010147 -93.68767758 181.67708072 -93.65429688 179.4140625 C-93.60749573 175.86493521 -93.56324262 172.31581159 -93.52319336 168.76660156 C-93.38052014 156.70687001 -93.14661074 144.69218221 -92.1015625 132.671875 C-92.02680191 131.77801086 -91.95204132 130.88414673 -91.87501526 129.9631958 C-90.98796501 120.77928998 -88.17139752 114.2517903 -81.13671875 108.15625 C-75.33005304 105.01406892 -69.18018553 104.79759573 -62.75 104.6875 C-53.97705602 104.34519749 -45.4482067 102.57835187 -38.8125 96.375 C-36.83771567 94.05340567 -36.83771567 94.05340567 -36 91 C-37.36125 90.9071875 -37.36125 90.9071875 -38.75 90.8125 C-48.36566531 89.44163122 -58.6100608 84.37300677 -65 77 C-65 76.34 -65 75.68 -65 75 C-64.21625 74.773125 -63.4325 74.54625 -62.625 74.3125 C-59.28354228 72.64177114 -59.15852482 71.46554395 -58 68 C-56.0469575 60.95372901 -55.81763343 53.8213338 -55.5625 46.5625 C-54.96254944 31.48857731 -51.83733974 17.87517913 -41.125 6.5 C-29.42896602 -4.24403122 -14.35719887 -7.69728437 0 0 Z " fill="#F9AE8A" transform="translate(152,28)"/>
<path d="M0 0 C1.67542976 0.28604898 3.34385343 0.61781233 5 1 C4.99555878 1.54964417 4.99111755 2.09928833 4.98654175 2.66558838 C4.94192643 8.44174572 4.91197689 14.21785327 4.89013672 19.99414062 C4.88014536 22.14324943 4.86654769 24.29234487 4.84912109 26.44140625 C4.61398534 41.62168704 4.61398534 41.62168704 6.51904297 56.64160156 C7.2398152 60.17594661 7.42499054 63.64982973 7.625 67.25 C7.69976562 68.53390625 7.77453125 69.8178125 7.8515625 71.140625 C7.90054687 72.08421875 7.94953125 73.0278125 8 74 C5.06552643 71.06552643 5.53841577 67.81740544 5.375 63.875 C5.33632813 63.12089844 5.29765625 62.36679687 5.2578125 61.58984375 C5.16348969 59.72696816 5.08065338 57.86351745 5 56 C4.34 56 3.68 56 3 56 C2.67 56.99 2.34 57.98 2 59 C1.67 56.36 1.34 53.72 1 51 C0.34 51.66 -0.32 52.32 -1 53 C-1.02526692 45.61271898 -1.0428316 38.22544902 -1.05493164 30.83813477 C-1.05997363 28.32283105 -1.06680703 25.80753028 -1.07543945 23.29223633 C-1.08751094 19.68570225 -1.09322949 16.07920677 -1.09765625 12.47265625 C-1.10281754 11.34038101 -1.10797882 10.20810577 -1.11329651 9.04151917 C-1.11337204 8.00051559 -1.11344757 6.95951202 -1.11352539 5.88696289 C-1.115746 4.96540909 -1.11796661 4.04385529 -1.12025452 3.09437561 C-1 1 -1 1 0 0 Z " fill="#F8F5ED" transform="translate(402,353)"/>
<path d="M0 0 C1.2065625 0.0309375 1.2065625 0.0309375 2.4375 0.0625 C2.42702637 1.04718262 2.41655273 2.03186523 2.40576172 3.04638672 C2.21079064 23.16213456 2.39324443 43.02498965 4.4375 63.0625 C3.7775 62.7325 3.1175 62.4025 2.4375 62.0625 C1.98639238 59.56519179 1.64232751 57.14252774 1.375 54.625 C0.9729342 49.69510078 0.9729342 49.69510078 -0.5625 45.0625 C-1.2225 45.7225 -1.8825 46.3825 -2.5625 47.0625 C-2.73033252 40.52986699 -2.89029476 33.99707595 -3.04467773 27.46411133 C-3.09818392 25.23978264 -3.15351963 23.0154972 -3.21069336 20.79125977 C-3.2923646 17.60182018 -3.36754388 14.41228501 -3.44140625 11.22265625 C-3.48195885 9.72110741 -3.48195885 9.72110741 -3.52333069 8.18922424 C-3.54342697 7.26834518 -3.56352325 6.34746613 -3.58422852 5.39868164 C-3.60421402 4.58371719 -3.62419952 3.76875275 -3.64479065 2.92909241 C-3.5140372 -0.03677793 -2.97081014 0.07245878 0 0 Z " fill="#F8F5EE" transform="translate(136.5625,352.9375)"/>
<path d="M0 0 C0.66 0 1.32 0 2 0 C3.99532146 3.36577357 4.36657144 6.19861242 4.6328125 10.078125 C4.71660156 11.23828125 4.80039062 12.3984375 4.88671875 13.59375 C4.96535156 14.8003125 5.04398437 16.006875 5.125 17.25 C5.21136719 18.47203125 5.29773438 19.6940625 5.38671875 20.953125 C5.59872381 23.96830815 5.8028513 26.98381502 6 30 C2.7 29.67 -0.6 29.34 -4 29 C-4.66 30.32 -5.32 31.64 -6 33 C-9.8479588 28.40727498 -11.15358901 25.47748153 -11.25 19.5 C-11.27578125 18.5409375 -11.3015625 17.581875 -11.328125 16.59375 C-10.95389709 13.63556747 -10.30935919 12.79886927 -8 11 C-7.35163958 12.74906531 -6.70641216 14.49929219 -6.0625 16.25 C-5.70285156 17.22453125 -5.34320313 18.1990625 -4.97265625 19.203125 C-4.18620345 21.46457161 -3.52748399 23.66796552 -3 26 C-1.68 26 -0.36 26 1 26 C1.02716089 22.97910522 1.04691657 19.95845871 1.0625 16.9375 C1.07087891 16.08994141 1.07925781 15.24238281 1.08789062 14.36914062 C1.10683006 9.4638278 0.83326345 4.83555245 0 0 Z " fill="#F8F7F1" transform="translate(336,345)"/>
<path d="M0 0 C0.99 0.33 1.98 0.66 3 1 C4.42840712 6.89217938 4.94152516 12.53716757 2 18 C-2.04414587 23.52207294 -2.04414587 23.52207294 -5 25 C-5 26.32 -5 27.64 -5 29 C-5.66 29 -6.32 29 -7 29 C-7.33 27.02 -7.66 25.04 -8 23 C-7.34 23 -6.68 23 -6 23 C-5.67 21.35 -5.34 19.7 -5 18 C-6.32 17.67 -7.64 17.34 -9 17 C-8.67 16.34 -8.34 15.68 -8 15 C-7.01 15 -6.02 15 -5 15 C-3.35 10.05 -1.7 5.1 0 0 Z " fill="#F9FAF6" transform="translate(479,356)"/>
<path d="M0 0 C0.66 0 1.32 0 2 0 C3.65 4.95 5.3 9.9 7 15 C8.32 15 9.64 15 11 15 C10 18 10 18 8 19 C7.34444881 21.52733235 7.34444881 21.52733235 7 24 C3.74186367 22.95274189 2.46393823 21.42983232 0.8125 18.5625 C-1.66796161 13.68710993 -2.28199696 10.45194122 -2 5 C-1 2.0625 -1 2.0625 0 0 Z " fill="#F9F8F4" transform="translate(59,356)"/>
<path d="M0 0 C3.12683307 1.53262715 6.12622868 3.22114743 9.12109375 5 C16.27459294 8.80726776 23.7618463 9.11808544 31.671875 7.4296875 C35.77600035 6.12132539 39.41831462 4.426303 43 2 C41.1005875 7.16999853 37.03186697 8.56172679 32.28515625 10.78515625 C23.83032458 13.9117349 16.72309378 12.21628626 8.68359375 8.578125 C4.77246836 6.27813278 2.60388765 3.68884084 0 0 Z " fill="#ED9070" transform="translate(357,352)"/>
<path d="M0 0 C0.66 0.33 1.32 0.66 2 1 C2.54943348 7.5932018 1.92592974 12.54731981 -2 18 C-6.9438549 23.28359849 -11.52535087 26.01952931 -18.8125 26.375 C-23.87322056 26.28408885 -27.87471687 24.95124694 -32 22 C-32.33 21.34 -32.66 20.68 -33 20 C-27.25 21.875 -27.25 21.875 -25 23 C-18.27890433 23.86677978 -12.75177801 22.55732455 -7 19 C-1.44341527 13.44341527 -0.62232306 7.51700744 0 0 Z " fill="#EC9071" transform="translate(185,194)"/>
<path d="M0 0 C2.79802651 2.79802651 2.4689285 5.49253606 2.5 9.25 C2.49860277 21.62663155 -2.39840158 31.11343057 -10.75390625 40.109375 C-13.09076606 42.07640134 -15.11535391 43.04690077 -18 44 C-16.9790625 43.071875 -16.9790625 43.071875 -15.9375 42.125 C-4.23823964 30.22688536 -0.25065421 16.26973663 0 0 Z " fill="#EC906F" transform="translate(396,172)"/>
<path d="M0 0 C0 0.99 0 1.98 0 3 C-6.79189005 9.57964348 -15.05295945 12.39066837 -24.33984375 12.28125 C-31.46021653 11.52843526 -36.86591903 7.73915167 -42 3 C-38.84864613 3 -38.07368659 3.35152208 -35.5 4.9375 C-29.0237872 8.89991967 -22.4222802 8.57887442 -15 8 C-9.19523272 6.52589462 -4.40559687 4.11189042 0 0 Z " fill="#ED906F" transform="translate(449,352)"/>
<path d="M0 0 C0.33 0 0.66 0 1 0 C1.08636719 0.70125 1.17273438 1.4025 1.26171875 2.125 C2.39913361 9.80515903 4.17942313 16.03905292 10.5 20.9375 C18.70215906 24.4234176 25.94644687 23.06802024 34 20 C34 20.66 34 21.32 34 22 C28.0275414 26.1475407 22.13032866 26.76128321 15 26 C8.31532369 23.97258517 4.52642856 20.03526783 0.875 14.203125 C-0.2805825 11.29353335 -0.19280883 8.86920628 -0.125 5.75 C-0.10695313 4.67234375 -0.08890625 3.5946875 -0.0703125 2.484375 C-0.04710938 1.66453125 -0.02390625 0.8446875 0 0 Z " fill="#EB916F" transform="translate(86,194)"/>
<path d="M0 0 C0.99 0.33 1.98 0.66 3 1 C3.33 5.62 3.66 10.24 4 15 C8.20180184 14.4260261 8.20180184 14.4260261 10 11 C9.74438677 13.3431213 9.40729228 15.67843403 9 18 C8.34 18.33 7.68 18.66 7 19 C7 18.34 7 17.68 7 17 C4.69 17.66 2.38 18.32 0 19 C0.061875 20.0725 0.12375 21.145 0.1875 22.25 C-0.01215813 26.24316254 -0.53968257 27.08119822 -3 30 C-2.85816304 28.24967156 -2.71136571 26.49974466 -2.5625 24.75 C-2.48128906 23.77546875 -2.40007812 22.8009375 -2.31640625 21.796875 C-2 19 -2 19 -1.5 17.125 C-0.73495372 13.87355331 -0.62916989 10.57437291 -0.4375 7.25 C-0.39431641 6.55261719 -0.35113281 5.85523438 -0.30664062 5.13671875 C-0.20110404 3.42468078 -0.1001009 1.71236439 0 0 Z " fill="#F7F3EB" transform="translate(199,356)"/>
<path d="M0 0 C0.33 0 0.66 0 1 0 C1.08636719 0.85980469 1.17273438 1.71960938 1.26171875 2.60546875 C2.71564117 14.83709129 5.80204726 25.53587131 14 35 C14.95838683 36.16662272 15.9167244 37.33328592 16.875 38.5 C17.57625 39.325 18.2775 40.15 19 41 C13.22649861 38.43399938 9.5873187 34.85745621 6.3125 29.5 C5.44044922 28.09234375 5.44044922 28.09234375 4.55078125 26.65625 C0.61331366 19.91197301 -0.13661985 14.48170404 -0.0625 6.625 C-0.05347656 5.37976563 -0.04445313 4.13453125 -0.03515625 2.8515625 C-0.02355469 1.91054687 -0.01195312 0.96953125 0 0 Z " fill="#EB8E6E" transform="translate(410,175)"/>
<path d="M0 0 C0.33 0 0.66 0 1 0 C1.33 11.88 1.66 23.76 2 36 C0.68 36.66 -0.64 37.32 -2 38 C-1.98259766 36.515 -1.98259766 36.515 -1.96484375 35 C-1.83268568 26.56866082 -1.83268568 26.56866082 -2.625 18.1875 C-2.74875 17.135625 -2.8725 16.08375 -3 15 C-2.34 14.34 -1.68 13.68 -1 13 C-0.53513282 9.87803664 -0.53513282 9.87803664 -0.375 6.375 C-0.30023438 5.18648438 -0.22546875 3.99796875 -0.1484375 2.7734375 C-0.09945312 1.85820312 -0.05046875 0.94296875 0 0 Z " fill="#F6EADF" transform="translate(72,333)"/>
<path d="M0 0 C0.33 0 0.66 0 1 0 C1.33 5.94 1.66 11.88 2 18 C2.66 17.01 3.32 16.02 4 15 C3.86149295 18.45866792 3.71295273 21.91683275 3.5625 25.375 C3.50352539 26.85226562 3.50352539 26.85226562 3.44335938 28.359375 C3.40146484 29.30039062 3.35957031 30.24140625 3.31640625 31.2109375 C3.26141968 32.51490479 3.26141968 32.51490479 3.20532227 33.84521484 C2.85715014 37.49915922 1.71827297 38.28172703 -1 41 C-0.67 27.47 -0.34 13.94 0 0 Z " fill="#F7E8DC" transform="translate(467,333)"/>
<path d="M0 0 C0.33 0 0.66 0 1 0 C1.02472359 4.50235595 1.04287119 9.00467236 1.05493164 13.50708008 C1.0599596 15.0386626 1.06678284 16.57024033 1.07543945 18.10180664 C1.08757229 20.30356022 1.09324367 22.50525033 1.09765625 24.70703125 C1.10281754 25.39150833 1.10797882 26.07598541 1.11329651 26.78120422 C1.1136536 29.80906242 0.96616619 32.10150142 0 35 C0.66 35 1.32 35 2 35 C1.23004535 39.77371881 -0.08134244 44.55679303 -2 49 C-2.99 49.495 -2.99 49.495 -4 50 C-3.79503906 48.82050781 -3.59007812 47.64101563 -3.37890625 46.42578125 C-0.85603403 30.95974863 -0.29686685 15.64537522 0 0 Z " fill="#F8ECE0" transform="translate(449,488)"/>
<path d="M0 0 C0.33 0 0.66 0 1 0 C1.1100174 14.0399129 1.07870346 27.99611759 0 42 C-0.33 42 -0.66 42 -1 42 C-1.8283506 30.31433979 -2.12330415 18.71389465 -2 7 C-1.67 7 -1.34 7 -1 7 C-0.67 4.69 -0.34 2.38 0 0 Z " fill="#F5BB9D" transform="translate(401,364)"/>
<path d="M0 0 C2.27810098 1.7852137 2.94916641 2.64197848 3.36328125 5.55859375 C3.34652344 6.50863281 3.32976562 7.45867187 3.3125 8.4375 C3.30863281 9.38496094 3.30476562 10.33242188 3.30078125 11.30859375 C2.99934156 14.00589177 2.37375963 15.68485928 1 18 C0.67 18 0.34 18 0 18 C-0.67258667 15.66836622 -1.33847444 13.3347961 -2 11 C-2.268125 10.34 -2.53625 9.68 -2.8125 9 C-3.12996036 5.61375615 -1.45244454 3.02108465 0 0 Z " fill="#F8F4ED" transform="translate(212,356)"/>
<path d="M0 0 C0.33 0 0.66 0 1 0 C2.69375198 10.57210576 3.25919254 20.74893763 3.125 31.4375 C3.11492845 32.86262377 3.10581014 34.2877546 3.09765625 35.71289062 C3.07602292 39.14207846 3.04173497 42.57099067 3 46 C2.67 46 2.34 46 2 46 C1.97494385 45.29915283 1.9498877 44.59830566 1.92407227 43.8762207 C1.80773455 40.68814512 1.68517956 37.50033758 1.5625 34.3125 C1.52318359 33.20970703 1.48386719 32.10691406 1.44335938 30.97070312 C1.40146484 29.90400391 1.35957031 28.83730469 1.31640625 27.73828125 C1.27974854 26.75899658 1.24309082 25.77971191 1.20532227 24.77075195 C1.00756484 22.10208493 0.52971122 19.61877316 0 17 C-0.0747206 15.59927002 -0.10836374 14.19564939 -0.09765625 12.79296875 C-0.09443359 12.04208984 -0.09121094 11.29121094 -0.08789062 10.51757812 C-0.07951172 9.74865234 -0.07113281 8.97972656 -0.0625 8.1875 C-0.05573242 7.00510742 -0.05573242 7.00510742 -0.04882812 5.79882812 C-0.03711312 3.86585239 -0.01917998 1.93291607 0 0 Z " fill="#F6E5D5" transform="translate(148,541)"/>
<path d="M0 0 C0.99 0.495 0.99 0.495 2 1 C4.3973666 10.84104192 4.2349655 20.94869789 4 31 C3.67 31 3.34 31 3 31 C3 28.36 3 25.72 3 23 C2.34 23 1.68 23 1 23 C0.24833087 15.30881404 -0.13690844 7.72772107 0 0 Z " fill="#F6EBDE" transform="translate(144,459)"/>
<path d="M0 0 C0.33 0 0.66 0 1 0 C1.09796875 0.68707031 1.1959375 1.37414062 1.296875 2.08203125 C1.52117187 3.43361328 1.52117187 3.43361328 1.75 4.8125 C1.88921875 5.70582031 2.0284375 6.59914063 2.171875 7.51953125 C3.20771474 10.62216443 4.09264914 11.52641121 7 13 C9.83072766 13.14793392 9.83072766 13.14793392 12.75 12.6875 C14.22726563 12.50767578 14.22726563 12.50767578 15.734375 12.32421875 C16.48203125 12.21722656 17.2296875 12.11023438 18 12 C14.99967275 15.13670576 13.67365132 15.93373921 9.1875 16.375 C5.5779882 16.34874901 5.07312154 16.05911955 2.0625 13.625 C-1.45107332 9.15317942 -1.17701924 6.5761062 -1 1 C-0.67 0.67 -0.34 0.34 0 0 Z " fill="#EC9070" transform="translate(103,461)"/>
<path d="M0 0 C0.309375 0.639375 0.61875 1.27875 0.9375 1.9375 C1.8345163 3.93610821 1.8345163 3.93610821 3 5 C3.08858646 7.73894085 3.11523479 10.4525327 3.09765625 13.19140625 C3.0962413 14.01124496 3.09482635 14.83108368 3.09336853 15.67576599 C3.08775289 18.30471382 3.07519779 20.93357773 3.0625 23.5625 C3.05748701 25.34049357 3.05292376 27.11848846 3.04882812 28.89648438 C3.03777839 33.26435545 3.02050331 37.63216348 3 42 C2.67 42 2.34 42 2 42 C1.71256409 37.14378553 1.42782424 32.28742299 1.14550781 27.4309082 C1.04923147 25.78112592 0.95223737 24.13138536 0.85449219 22.48168945 C0.71357421 20.1011822 0.57529625 17.7205335 0.4375 15.33984375 C0.39375244 14.61039047 0.35000488 13.88093719 0.30493164 13.12937927 C0.05417458 8.74444179 -0.04031822 4.39216656 0 0 Z " fill="#F5E5D7" transform="translate(494,311)"/>
<path d="M0 0 C0.33 0 0.66 0 1 0 C0.67 12.21 0.34 24.42 0 37 C0.66 37 1.32 37 2 37 C2.125 39.875 2.125 39.875 2 43 C1.34 43.66 0.68 44.32 0 45 C-0.82760005 40.66927658 -1.1285576 36.57452731 -1.1328125 32.16796875 C-1.13410156 30.87439453 -1.13539063 29.58082031 -1.13671875 28.24804688 C-1.13462402 27.58023193 -1.1325293 26.91241699 -1.13037109 26.22436523 C-1.12504229 24.20353595 -1.13031985 22.18293161 -1.13671875 20.16210938 C-1.12995701 13.35641751 -0.93471528 6.74330308 0 0 Z " fill="#F7E2D3" transform="translate(390,550)"/>
<path d="M0 0 C0.33 0 0.66 0 1 0 C1 8.91 1 17.82 1 27 C0.01 27 -0.98 27 -2 27 C-2 19.74 -2 12.48 -2 5 C-1.67 5 -1.34 5 -1 5 C-0.67 3.35 -0.34 1.7 0 0 Z " fill="#F3B598" transform="translate(181,484)"/>
<path d="M0 0 C-0.185625 0.78375 -0.37125 1.5675 -0.5625 2.375 C-1.25962266 4.97089775 -1.25962266 4.97089775 0 7 C2.52733235 7.65555119 2.52733235 7.65555119 5 8 C5 8.66 5 9.32 5 10 C-0.65880474 9.85852988 -3.43940628 7.29873481 -7.4609375 3.69140625 C-9 2 -9 2 -9 0 C-5.62182575 -0.84454356 -3.32534757 -1.10844919 0 0 Z " fill="#F8F1EB" transform="translate(434,121)"/>
<path d="M0 0 C0.33 0 0.66 0 1 0 C1.6271777 7.99651568 1.6271777 7.99651568 -0.875 12 C-4.22077875 15.14896823 -6.45027193 15.20954298 -11.0234375 15.16796875 C-13.37915131 14.96777963 -15.03599056 14.30933963 -17 13 C-16.67 12.34 -16.34 11.68 -16 11 C-15.09507812 11.14308594 -15.09507812 11.14308594 -14.171875 11.2890625 C-13.37265625 11.39992188 -12.5734375 11.51078125 -11.75 11.625 C-10.96109375 11.74101562 -10.1721875 11.85703125 -9.359375 11.9765625 C-6.64198207 12.00355647 -5.27416426 11.44946733 -3 10 C-0.89639423 6.8999494 -0.50005752 3.66708848 0 0 Z " fill="#EB8F70" transform="translate(169,462)"/>
<path d="M0 0 C6.27 0 12.54 0 19 0 C15.56189009 3.43810991 14.34416777 4.15608401 9.6875 4.25 C5.67825303 4.21766736 3.19957298 3.58030079 0 1 C0 0.67 0 0.34 0 0 Z " fill="#EB8E6E" transform="translate(127,349)"/>
<path d="M0 0 C0.33 0 0.66 0 1 0 C1.33 1.98 1.66 3.96 2 6 C2.33 6 2.66 6 3 6 C3 9.63 3 13.26 3 17 C2.34 17 1.68 17 1 17 C1 20.96 1 24.92 1 29 C0.67 29 0.34 29 0 29 C0 19.43 0 9.86 0 0 Z " fill="#F5BB9E" transform="translate(418,552)"/>
<path d="M0 0 C0.33 0 0.66 0 1 0 C1 7.59 1 15.18 1 23 C0.34 23 -0.32 23 -1 23 C-1.22587773 19.73012965 -1.42766605 16.45920719 -1.625 13.1875 C-1.68945312 12.25873047 -1.75390625 11.32996094 -1.8203125 10.37304688 C-1.871875 9.48037109 -1.9234375 8.58769531 -1.9765625 7.66796875 C-2.02893066 6.84578857 -2.08129883 6.0236084 -2.13525391 5.17651367 C-2 3 -2 3 0 0 Z " fill="#F4FDFC" transform="translate(404,365)"/>
<path d="M0 0 C0.33 0 0.66 0 1 0 C1.12954409 7.57023262 0.61778251 15.01970944 0 22.5625 C-0.09539062 23.76197266 -0.19078125 24.96144531 -0.2890625 26.19726562 C-0.52288821 29.13177831 -0.75994187 32.06599171 -1 35 C-1.33 35 -1.66 35 -2 35 C-2.05834421 30.47922138 -2.09371252 25.95854047 -2.125 21.4375 C-2.15013672 19.52227539 -2.15013672 19.52227539 -2.17578125 17.56835938 C-2.20811155 11.34477741 -2.23461206 5.85046072 0 0 Z " fill="#F7F0E4" transform="translate(313,301)"/>
<path d="M0 0 C0.33 0 0.66 0 1 0 C1 9.57 1 19.14 1 29 C0.67 29 0.34 29 0 29 C-0.33695862 26.27123692 -0.66968429 23.54206837 -1 20.8125 C-1.14308594 19.65911133 -1.14308594 19.65911133 -1.2890625 18.48242188 C-1.75192894 14.63071189 -2.12467468 10.88829149 -2 7 C-1.67 7 -1.34 7 -1 7 C-0.67 4.69 -0.34 2.38 0 0 Z " fill="#F4BCA0" transform="translate(121,552)"/>
<path d="M0 0 C0.33 0 0.66 0 1 0 C1.02714434 2.7084017 1.04690846 5.41652721 1.0625 8.125 C1.07087891 8.88554687 1.07925781 9.64609375 1.08789062 10.4296875 C1.10646509 14.7389644 0.86117265 18.75516474 0 23 C-2 21 -2 21 -2.25 17.6875 C-2.11786148 11.73025521 -1.00068447 5.86115192 0 0 Z " fill="#F7F0E7" transform="translate(128,447)"/>
<path d="M0 0 C0.33 0 0.66 0 1 0 C0.67 5.28 0.34 10.56 0 16 C-3 13 -3 13 -3.29296875 10.30078125 C-3.25816406 9.31464844 -3.22335938 8.32851563 -3.1875 7.3125 C-3.16042969 6.31863281 -3.13335937 5.32476562 -3.10546875 4.30078125 C-3.07066406 3.54152344 -3.03585938 2.78226562 -3 2 C-2.01 2 -1.02 2 0 2 C0 1.34 0 0.68 0 0 Z " fill="#F5B696" transform="translate(128,439)"/>
<path d="M0 0 C0.33 0 0.66 0 1 0 C2.512545 5.16044765 3.33500455 8.65998179 2 14 C-0.32037422 12.25971934 -1.83707038 10.95863243 -2.3359375 8.0234375 C-2.375 5.875 -2.375 5.875 -2 2 C-1.34 1.34 -0.68 0.68 0 0 Z " fill="#F9F5EC" transform="translate(342,377)"/>
<path d="M0 0 C0.33 1.32 0.66 2.64 1 4 C0.34 4 -0.32 4 -1 4 C-1.061875 4.78375 -1.12375 5.5675 -1.1875 6.375 C-1.455625 7.24125 -1.72375 8.1075 -2 9 C-3.65204456 9.70211894 -5.31923769 10.36971413 -7 11 C-7.88693303 13.04105639 -7.88693303 13.04105639 -8 15 C-10.97 14.505 -10.97 14.505 -14 14 C-11 12 -11 12 -8.6875 10.9375 C-4.70489191 8.06631743 -2.53151131 4.14959071 0 0 Z " fill="#F7F0E6" transform="translate(225,371)"/>
<path d="M0 0 C0.9590625 1.2375 0.9590625 1.2375 1.9375 2.5 C6.02384465 5.83579155 8.92872936 5.4971834 14 5 C14 5.66 14 6.32 14 7 C10.87352105 8.85272826 8.62412276 9.61875267 5 9 C2.1875 6.75 2.1875 6.75 0 4 C0 2.68 0 1.36 0 0 Z " fill="#EC9372" transform="translate(465,252)"/>
<path d="M0 0 C0.33 0 0.66 0 1 0 C0.7834375 1.3303125 0.7834375 1.3303125 0.5625 2.6875 C-0.16037537 7.50006751 -0.31102393 12.34946829 -0.5234375 17.20703125 C-0.68070313 18.12871094 -0.83796875 19.05039062 -1 20 C-1.99 20.66 -2.98 21.32 -4 22 C-3.5697663 14.3299717 -2.25768639 7.34103058 0 0 Z " fill="#F7F3E9" transform="translate(187,421)"/>
<path d="M0 0 C0.99 0.33 1.98 0.66 3 1 C4.17327203 5.83974712 4.9302313 10.73256121 3 15.4375 C2.67 15.953125 2.34 16.46875 2 17 C2.061875 15.741875 2.12375 14.48375 2.1875 13.1875 C2.32116016 9.90891218 2.32116016 9.90891218 0.4375 7.375 C-0.2740625 6.694375 -0.2740625 6.694375 -1 6 C-0.6875 2.8125 -0.6875 2.8125 0 0 Z " fill="#F9ECE1" transform="translate(479,356)"/>
<path d="M0 0 C0.33 0 0.66 0 1 0 C1.3125 2.25 1.3125 2.25 1 5 C-1.0625 7.375 -1.0625 7.375 -4 9 C-7.6875 8.9375 -7.6875 8.9375 -11 8 C-11.66 7.01 -12.32 6.02 -13 5 C-11.96939453 5.08701172 -11.96939453 5.08701172 -10.91796875 5.17578125 C-8.20217673 5.31176511 -5.6961874 5.3696386 -3 5 C-0.84397306 2.66250834 -0.84397306 2.66250834 0 0 Z " fill="#ED9171" transform="translate(341,252)"/>
<path d="M0 0 C0.33 0 0.66 0 1 0 C1.33 5.28 1.66 10.56 2 16 C1.67 16 1.34 16 1 16 C0.67 13.69 0.34 11.38 0 9 C-0.66 9.66 -1.32 10.32 -2 11 C-2 10.34 -2 9.68 -2 9 C-2.66 9 -3.32 9 -4 9 C-2.80100302 5.9168649 -1.52299523 2.93720508 0 0 Z " fill="#F7EEE0" transform="translate(455,202)"/>
<path d="M0 0 C0.33 0 0.66 0 1 0 C2.10228696 4.40914783 2.07654536 8.48382401 2 13 C1.67 13 1.34 13 1 13 C0.67 11.35 0.34 9.7 0 8 C-0.66 8 -1.32 8 -2 8 C-2.12375 8.639375 -2.2475 9.27875 -2.375 9.9375 C-2.58125 10.618125 -2.7875 11.29875 -3 12 C-3.99 12.495 -3.99 12.495 -5 13 C-4.54803755 11.39402675 -4.08817673 9.79027492 -3.625 8.1875 C-3.36976563 7.29417969 -3.11453125 6.40085938 -2.8515625 5.48046875 C-2 3 -2 3 0 0 Z " fill="#F7F0E7" transform="translate(187,203)"/>
<path d="M0 0 C0.75 1.6875 0.75 1.6875 1 4 C-1.80370711 8.75411206 -6.09408603 11.66081653 -11 14 C-13.40264188 14.61989066 -15.50829162 14.84426823 -18 15 C-15.67342661 13.44895107 -13.48768904 12.17663299 -11 10.9375 C-10.319375 10.59589844 -9.63875 10.25429687 -8.9375 9.90234375 C-7 9 -7 9 -4 8 C-2.87483915 6.16715557 -2.87483915 6.16715557 -2 4 C-1.33333333 2.66666667 -0.66666667 1.33333333 0 0 Z " fill="#F9EBDF" transform="translate(185,105)"/>
<path d="M0 0 C0.33 0 0.66 0 1 0 C1.33 2.31 1.66 4.62 2 7 C1.34 7 0.68 7 0 7 C0.11859375 7.59167969 0.2371875 8.18335938 0.359375 8.79296875 C0.48828125 9.58316406 0.6171875 10.37335938 0.75 11.1875 C0.88921875 11.96480469 1.0284375 12.74210938 1.171875 13.54296875 C0.93157254 16.97820162 -0.72524182 18.51804485 -3 21 C-2.68981396 18.4372008 -2.37693109 15.8747789 -2.0625 13.3125 C-1.97548828 12.59126953 -1.88847656 11.87003906 -1.79882812 11.12695312 C-1.33686195 7.37989416 -0.80832321 3.69207089 0 0 Z " fill="#F7F1E3" transform="translate(348,241)"/>
<path d="M0 0 C2.50298434 2.93828597 3.46930939 5.17902761 4 9 C3.34 8.67 2.68 8.34 2 8 C2 7.34 2 6.68 2 6 C1.01 6.495 1.01 6.495 0 7 C-0.40729228 9.32156597 -0.74438677 11.6568787 -1 14 C-1.33 14 -1.66 14 -2 14 C-2.05410687 12.22950311 -2.09284119 10.45853151 -2.125 8.6875 C-2.14820313 7.70136719 -2.17140625 6.71523438 -2.1953125 5.69921875 C-2 3 -2 3 0 0 Z " fill="#F8EEE5" transform="translate(327,356)"/>
<path d="M0 0 C0.66 0 1.32 0 2 0 C2.69821417 2.10063576 3.38324472 4.20565737 4.0625 6.3125 C4.44535156 7.48425781 4.82820313 8.65601563 5.22265625 9.86328125 C6 13 6 13 5 16 C4.67 16 4.34 16 4 16 C2.33333333 11 0.66666667 6 -1 1 C-0.67 0.67 -0.34 0.34 0 0 Z " fill="#F4EDE2" transform="translate(59,356)"/>
<path d="M0 0 C0.33 0 0.66 0 1 0 C1.10251672 5.12583611 1.03590199 9.94997778 0 15 C-0.99 15 -1.98 15 -3 15 C-2.5547115 9.72684667 -1.91626837 4.98229776 0 0 Z " fill="#F5B293" transform="translate(396,432)"/>
<path d="M0 0 C6.98942918 -0.602537 6.98942918 -0.602537 9.8671875 1.11328125 C11.30861002 2.33745588 12.66278229 3.66278229 14 5 C13.67 5.66 13.34 6.32 13 7 C11.39459341 6.21085079 9.79071984 5.41858235 8.1875 4.625 C7.29417969 4.18414062 6.40085937 3.74328125 5.48046875 3.2890625 C3 2 3 2 0 0 Z " fill="#ED9171" transform="translate(111,133)"/>
<path d="M0 0 C0.33 0.99 0.66 1.98 1 3 C-0.07421875 4.7890625 -0.07421875 4.7890625 -1.6875 6.625 C-2.20699219 7.23601563 -2.72648437 7.84703125 -3.26171875 8.4765625 C-5.181038 10.15866252 -6.50835704 10.59829721 -9 11 C-9 10.34 -9 9.68 -9 9 C-8.34 9 -7.68 9 -7 9 C-7 8.34 -7 7.68 -7 7 C-5.34614767 5.65080468 -3.678298 4.31866272 -2 3 C-1.34 2.01 -0.68 1.02 0 0 Z " fill="#F7F4EE" transform="translate(106,640)"/>
<path d="M0 0 C0.33 0 0.66 0 1 0 C1 4.95 1 9.9 1 15 C0.01 15.33 -0.98 15.66 -2 16 C-1.34 10.72 -0.68 5.44 0 0 Z " fill="#F6EBDE" transform="translate(181,511)"/>
<path d="M0 0 C0.99 0.33 1.98 0.66 3 1 C3 4.63 3 8.26 3 12 C2.01 12 1.02 12 0 12 C0 8.04 0 4.08 0 0 Z " fill="#F6E8D8" transform="translate(199,356)"/>
<path d="M0 0 C7.59 0 15.18 0 23 0 C23 0.99 23 1.98 23 3 C15.41 2.34 7.82 1.68 0 1 C0 0.67 0 0.34 0 0 Z " fill="#F8E7DA" transform="translate(442,132)"/>
<path d="M0 0 C0.99 0.33 1.98 0.66 3 1 C2.67 6.94 2.34 12.88 2 19 C1.67 19 1.34 19 1 19 C0.67 12.73 0.34 6.46 0 0 Z " fill="#F6BEA4" transform="translate(143,436)"/>
<path d="M0 0 C0.33 0 0.66 0 1 0 C1.33 1.98 1.66 3.96 2 6 C2.66 5.67 3.32 5.34 4 5 C4.33 7.31 4.66 9.62 5 12 C3.0625 11.625 3.0625 11.625 1 11 C-0.20272819 8.59454362 -0.10071472 7.05003047 -0.0625 4.375 C-0.05347656 3.55773437 -0.04445313 2.74046875 -0.03515625 1.8984375 C-0.02355469 1.27195312 -0.01195312 0.64546875 0 0 Z " fill="#F3B598" transform="translate(469,360)"/>
<path d="M0 0 C0.33 0 0.66 0 1 0 C1.95261487 4.76307437 2.08333357 9.1666528 2 14 C1.67 12.68 1.34 11.36 1 10 C0.34 10 -0.32 10 -1 10 C-1.125 2.25 -1.125 2.25 0 0 Z " fill="#F4F2E8" transform="translate(493,283)"/>
<path d="M0 0 C0.66 0 1.32 0 2 0 C1.67 4.29 1.34 8.58 1 13 C-1.45410358 9.31884463 -1.23287843 7.34706402 -1 3 C-0.67 2.01 -0.34 1.02 0 0 Z " fill="#F7FCF5" transform="translate(96,59)"/>
<path d="M0 0 C0.66 0 1.32 0 2 0 C0.88059018 4.85077588 -0.1334716 7.777893 -4 11 C-3.67 9.02 -3.34 7.04 -3 5 C-2.34 5 -1.68 5 -1 5 C-0.67 3.35 -0.34 1.7 0 0 Z " fill="#F6F5EE" transform="translate(367,605)"/>
<path d="M0 0 C-2.33539809 1.55693206 -4.57968756 2.90200646 -7.0625 4.1875 C-7.75472656 4.55230469 -8.44695312 4.91710937 -9.16015625 5.29296875 C-9.76730469 5.52628906 -10.37445313 5.75960937 -11 6 C-11.66 5.67 -12.32 5.34 -13 5 C-8.58490204 0.69258736 -6.42286118 -0.64228612 0 0 Z " fill="#EC8E6D" transform="translate(161,133)"/>
<path d="M0 0 C0.33 0 0.66 0 1 0 C1 4.29 1 8.58 1 13 C-0.32 13.33 -1.64 13.66 -3 14 C-2.5359375 12.7625 -2.5359375 12.7625 -2.0625 11.5 C-0.88122417 7.60873845 -0.41775832 4.03833047 0 0 Z " fill="#F8F2E6" transform="translate(453,630)"/>
<path d="M0 0 C1.87184371 3.74368742 2.23999767 4.8400791 2.125 8.75 C2.10695313 9.54921875 2.08890625 10.3484375 2.0703125 11.171875 C2.04710937 11.77515625 2.02390625 12.3784375 2 13 C1.01 12.34 0.02 11.68 -1 11 C-0.67 7.37 -0.34 3.74 0 0 Z " fill="#F2B795" transform="translate(336,348)"/>
<path d="M0 0 C2.25245881 2.68841859 3.88213958 4.64641875 5 8 C3.35 8 1.7 8 0 8 C-0.98120464 4.94736336 -0.98120464 3.05263664 0 0 Z " fill="#F3B695" transform="translate(446,270)"/>
<path d="M0 0 C-1.39253532 3.48133831 -2.63176216 4.47886033 -6 6 C-6.33 6.66 -6.66 7.32 -7 8 C-7.33 7.01 -7.66 6.02 -8 5 C-3.375 0 -3.375 0 0 0 Z " fill="#F8F2EA" transform="translate(361,97)"/>
<path d="M0 0 C0.66 0.33 1.32 0.66 2 1 C1.67 2.32 1.34 3.64 1 5 C-1.31 4.67 -3.62 4.34 -6 4 C-5.38125 3.71125 -4.7625 3.4225 -4.125 3.125 C-1.86674235 2.06279958 -1.86674235 2.06279958 0 0 Z " fill="#F2B797" transform="translate(332,380)"/>
<path d="M0 0 C1.32 0 2.64 0 4 0 C4 1.65 4 3.3 4 5 C4.66 5 5.32 5 6 5 C5.67 5.66 5.34 6.32 5 7 C2.5 5.1875 2.5 5.1875 0 3 C0 2.01 0 1.02 0 0 Z " fill="#F6EDE1" transform="translate(158,121)"/>
<path d="M0 0 C0.99 0 1.98 0 3 0 C3 1.32 3 2.64 3 4 C2.34 4 1.68 4 1 4 C1.33 4.66 1.66 5.32 2 6 C2.039992 7.99960012 2.04346799 10.00047242 2 12 C1.67 12 1.34 12 1 12 C0.01751476 7.9472484 -0.08159574 4.16138263 0 0 Z " fill="#F5EDE1" transform="translate(171,56)"/>
<path d="M0 0 C0.99 0.33 1.98 0.66 3 1 C2.67 4.3 2.34 7.6 2 11 C1.67 11 1.34 11 1 11 C0.67 7.37 0.34 3.74 0 0 Z " fill="#F4B392" transform="translate(167,570)"/>
<path d="M0 0 C0.66 0 1.32 0 2 0 C1.67 1.65 1.34 3.3 1 5 C-0.65 5 -2.3 5 -4 5 C-4 4.01 -4 3.02 -4 2 C-3.01 2 -2.02 2 -1 2 C-0.67 1.34 -0.34 0.68 0 0 Z " fill="#F4F3EA" transform="translate(475,369)"/>
<path d="M0 0 C0.66 0 1.32 0 2 0 C2 1.98 2 3.96 2 6 C2.66 6.33 3.32 6.66 4 7 C2.35 6.67 0.7 6.34 -1 6 C-0.67 4.02 -0.34 2.04 0 0 Z " fill="#F4B598" transform="translate(333,365)"/>
<path d="M0 0 C0.66 0 1.32 0 2 0 C3.32229189 2.64458379 3.09677194 4.67761301 3.0625 7.625 C3.05347656 8.62789062 3.04445312 9.63078125 3.03515625 10.6640625 C3.02355469 11.43492187 3.01195312 12.20578125 3 13 C2.67 13 2.34 13 2 13 C1.34 8.71 0.68 4.42 0 0 Z " fill="#F8EEE2" transform="translate(183,624)"/>
<path d="M0 0 C2.1519437 3.22791555 2.20086443 4.28400809 2 8 C1.01 8 0.02 8 -1 8 C-0.67 5.36 -0.34 2.72 0 0 Z " fill="#F6F0E6" transform="translate(460,398)"/>
<path d="M0 0 C0.99 0.33 1.98 0.66 3 1 C3 3.97 3 6.94 3 10 C1.19669467 6.39338934 0.53400897 3.91606575 0 0 Z " fill="#F7FAF4" transform="translate(483,228)"/>
<path d="M0 0 C0.66 0 1.32 0 2 0 C1.34 3.96 0.68 7.92 0 12 C-0.33 12 -0.66 12 -1 12 C-1.02687279 10.18757948 -1.04633715 8.37504767 -1.0625 6.5625 C-1.07410156 5.55316406 -1.08570313 4.54382813 -1.09765625 3.50390625 C-1 1 -1 1 0 0 Z " fill="#F6F7EE" transform="translate(61,146)"/>
<path d="M0 0 C2.97 1.98 2.97 1.98 6 4 C2.25 6 2.25 6 0 6 C0 4.02 0 2.04 0 0 Z " fill="#F8F4ED" transform="translate(89,107)"/>
<path d="M0 0 C1.1446875 1.175625 1.1446875 1.175625 2.3125 2.375 C4.90891805 5.07257717 4.90891805 5.07257717 8 7 C6.35 7 4.7 7 3 7 C2.67 6.01 2.34 5.02 2 4 C1.34 4 0.68 4 0 4 C0 2.68 0 1.36 0 0 Z " fill="#F7F5EA" transform="translate(355,641)"/>
<path d="M0 0 C0.33 0 0.66 0 1 0 C1.3125 2.25 1.3125 2.25 1 5 C-1.5 7.3125 -1.5 7.3125 -4 9 C-2.94124926 5.59687262 -1.99097846 2.98646769 0 0 Z " fill="#F7F2E5" transform="translate(114,628)"/>
<path d="M0 0 C0.33 0.99 0.66 1.98 1 3 C-0.25 4.5625 -0.25 4.5625 -2 6 C-4.1875 5.6875 -4.1875 5.6875 -6 5 C-4.02 3.35 -2.04 1.7 0 0 Z " fill="#F7F3E9" transform="translate(123,619)"/>
<path d="M0 0 C1.9955516 3.99110319 2.19546065 5.69986566 2 10 C1.01 9.67 0.02 9.34 -1 9 C-0.67 6.03 -0.34 3.06 0 0 Z " fill="#F6EDE3" transform="translate(355,432)"/>
<path d="M0 0 C0.99 0.33 1.98 0.66 3 1 C3 2.32 3 3.64 3 5 C1.68 4.67 0.36 4.34 -1 4 C-0.67 2.68 -0.34 1.36 0 0 Z " fill="#EB906F" transform="translate(135,306)"/>
<path d="M0 0 C2.1519437 3.22791555 2.20086443 4.28400809 2 8 C1.34 8 0.68 8 0 8 C-1.125 2.25 -1.125 2.25 0 0 Z " fill="#F4F1E7" transform="translate(469,287)"/>
<path d="M0 0 C1.98 0.495 1.98 0.495 4 1 C3.67 1.99 3.34 2.98 3 4 C1.68 4 0.36 4 -1 4 C-0.67 2.68 -0.34 1.36 0 0 Z " fill="#EC8F6F" transform="translate(170,204)"/>
</svg>
