<?xml version="1.0" encoding="UTF-8"?>
<svg version="1.1" xmlns="http://www.w3.org/2000/svg" width="573" height="659">
<path d="M0 0 C189.09 0 378.18 0 573 0 C573 217.47 573 434.94 573 659 C383.91 659 194.82 659 0 659 C0 441.53 0 224.06 0 0 Z " fill="#FEFEFE" transform="translate(0,0)"/>
<path d="M0 0 C0.65226563 0.44214844 1.30453125 0.88429688 1.9765625 1.33984375 C3.36875 2.17515625 3.36875 2.17515625 4.7890625 3.02734375 C12.77895979 11.47380659 13.19940129 21.29683419 13.2890625 32.27734375 C13.31806641 33.45748047 13.34707031 34.63761719 13.37695312 35.85351562 C13.38533203 36.99240234 13.39371094 38.13128906 13.40234375 39.3046875 C13.42421753 40.86110962 13.42421753 40.86110962 13.4465332 42.44897461 C12.85415212 46.09281065 11.58934133 47.77311548 8.9765625 50.33984375 C7.9865625 50.33984375 6.9965625 50.33984375 5.9765625 50.33984375 C5.47110968 53.51487262 4.97797126 56.690608 4.5078125 59.87109375 C4.19411277 61.91936846 3.85169603 63.96417612 3.4453125 65.99609375 C3.31125 66.74890625 3.1771875 67.50171875 3.0390625 68.27734375 C2.90628906 68.92574219 2.77351562 69.57414062 2.63671875 70.2421875 C3.20429071 73.74547648 5.4910794 75.9749119 7.9765625 78.33984375 C10.26324332 79.94327536 12.43636999 81.35049069 14.8515625 82.71484375 C15.50721191 83.09423096 16.16286133 83.47361816 16.83837891 83.86450195 C18.87734732 85.03592267 20.92652561 86.18793237 22.9765625 87.33984375 C23.91048828 87.87859131 23.91048828 87.87859131 24.86328125 88.42822266 C32.01978753 92.55389512 39.06382208 95.86693478 46.9140625 98.46484375 C54.22815723 100.88927024 59.96944821 103.53083231 64.8515625 109.71484375 C69.55242538 120.68352381 69.97350485 133.52286589 70.91259766 145.26928711 C72.42919902 163.72441525 75.93744482 181.2170507 81.2265625 198.98046875 C89.66837403 227.37819714 92.19893143 255.42201682 94.2265625 284.90234375 C94.315961 286.19144653 94.4053595 287.48054932 94.49746704 288.80871582 C95.35879294 301.44310357 96.13108709 314.07643188 96.2734375 326.7421875 C96.29198792 327.61968155 96.31053833 328.4971756 96.32965088 329.40126038 C96.33356838 336.31474772 94.74454351 340.76364285 90.7890625 346.52734375 C85.25690864 352.05949761 79.65660565 353.79126924 71.9765625 354.33984375 C71.6465625 353.01984375 71.3165625 351.69984375 70.9765625 350.33984375 C72.0284375 350.11296875 73.0803125 349.88609375 74.1640625 349.65234375 C78.15394096 348.51931538 80.31598326 346.5481893 82.9765625 343.33984375 C83.98153102 340.32493818 84.07991553 338.29802683 84.0390625 335.15234375 C84.03003906 334.25128906 84.02101562 333.35023438 84.01171875 332.421875 C84.00011719 331.73480469 83.98851562 331.04773438 83.9765625 330.33984375 C82.9865625 330.00984375 81.9965625 329.67984375 80.9765625 329.33984375 C80.68652344 330.80357422 80.68652344 330.80357422 80.390625 332.296875 C80.13023437 333.56917969 79.86984375 334.84148437 79.6015625 336.15234375 C79.34632813 337.41691406 79.09109375 338.68148438 78.828125 339.984375 C77.9765625 343.33984375 77.9765625 343.33984375 75.9765625 346.33984375 C75.3165625 346.33984375 74.6565625 346.33984375 73.9765625 346.33984375 C71.79289102 341.97250079 72.79071346 336.07398188 72.79125977 331.21899414 C72.78908139 329.04618509 72.77094499 326.87389052 72.75195312 324.70117188 C72.74901742 323.31380381 72.74703381 321.92643335 72.74609375 320.5390625 C72.74198486 319.27924561 72.73787598 318.01942871 72.73364258 316.72143555 C72.96885261 313.44717003 73.63682572 311.29872765 74.9765625 308.33984375 C76.44857218 295.16822464 72.00328928 284.04124556 66.73828125 272.3125 C58.8187627 254.58786325 54.59422253 235.41953245 52.01904297 216.23803711 C51.16170805 210.02646257 49.68397564 204.24248953 47.953125 198.2109375 C46.59854596 192.84138617 45.78503052 187.42735834 45.015625 181.94702148 C44.34487992 177.25629753 43.38518126 172.86668695 41.9765625 168.33984375 C39.86176599 178.18069683 38.56384829 187.86553616 37.7487793 197.8918457 C37.0158802 206.60738209 35.76162932 215.20522543 34.33374023 223.83129883 C31.88099556 241.05751316 32.91168414 257.79668 35.2890625 274.96484375 C35.52064715 276.70871218 35.7507717 278.45277509 35.97949219 280.19702148 C36.32139234 282.80293236 36.66412426 285.40869398 37.0118103 288.01383972 C38.00587276 295.46723363 38.88831068 302.92970884 39.7265625 310.40234375 C39.94991565 312.39329715 40.17382182 314.38418864 40.3984375 316.375 C40.48706055 317.17301025 40.57568359 317.97102051 40.66699219 318.79321289 C40.89667259 320.68264216 41.18333343 322.56532799 41.5 324.44213867 C42.12198593 329.52923162 42.15811571 334.54740144 42.1796875 339.66796875 C42.18986908 341.30832092 42.18986908 341.30832092 42.20025635 342.98181152 C42.21722463 346.51785132 42.22345785 350.05376586 42.2265625 353.58984375 C42.22889893 354.79467407 42.23123535 355.99950439 42.23364258 357.24084473 C42.24399548 371.34479244 42.00850905 385.11297409 40.05712891 399.09521484 C37.35008353 419.26451639 37.97745515 440.28347953 41.61401367 460.27661133 C45.82343862 484.23206602 40.37450618 506.38134282 33.66015625 529.33984375 C33.09280104 531.33810579 32.53166411 533.33814315 31.9765625 535.33984375 C31.54960083 536.87765503 31.54960083 536.87765503 31.11401367 538.4465332 C28.96619847 546.84207137 28.40010225 554.87735624 28.4140625 563.52734375 C28.41255188 564.2015033 28.41104126 564.87566284 28.40948486 565.57025146 C28.42692251 577.12183953 30.22536776 586.82813311 34.9765625 597.33984375 C37.03632101 602.09102005 37.4765046 605.17377538 36.9765625 610.33984375 C34.1137708 613.21612954 31.93429529 613.72276218 27.94921875 613.73828125 C26.99208984 613.74214844 26.03496094 613.74601563 25.04882812 613.75 C24.05560547 613.73839844 23.06238281 613.72679687 22.0390625 613.71484375 C21.04970703 613.72644531 20.06035156 613.73804688 19.04101562 613.75 C12.62193691 613.72409921 9.02066247 613.10539862 4.18359375 608.7109375 C2.30327266 605.01723232 2.5778146 601.48657408 2.6640625 597.40234375 C2.6753418 596.5191748 2.68662109 595.63600586 2.69824219 594.72607422 C2.97376857 581.03918051 4.43204324 567.69696156 7.1015625 554.27734375 C9.80657829 540.41245101 10.45895668 526.74023785 6.828125 512.96875 C3.60140975 499.21820655 3.59720559 485.65156481 3.44482422 471.60083008 C3.41091701 468.75716161 3.36589064 465.91381411 3.3203125 463.0703125 C3.31239685 461.78256172 3.31239685 461.78256172 3.30432129 460.46879578 C3.22926155 455.88984173 2.76647082 451.81321658 1.53720093 447.40293884 C0.44780136 443.394054 -0.28146431 439.30109757 -1.08203125 435.2265625 C-1.36560486 433.78823311 -1.36560486 433.78823311 -1.65490723 432.32084656 C-6.14546191 409.41377084 -9.98053287 386.86680713 -11.5625 363.5546875 C-11.60740067 362.89430481 -11.65230133 362.23392212 -11.69856262 361.55352783 C-11.91296747 358.36175094 -12.11280655 355.17011 -12.29077148 351.97607422 C-12.65622361 345.81683701 -13.38699892 340.28127014 -15.0234375 334.33984375 C-15.0234375 333.01984375 -15.0234375 331.69984375 -15.0234375 330.33984375 C-16.3434375 330.33984375 -17.6634375 330.33984375 -19.0234375 330.33984375 C-20.89545017 344.77823935 -22.74932601 359.23247352 -23.5234375 373.77734375 C-23.83703914 379.4053732 -24.52744807 384.79160663 -25.5546875 390.328125 C-26.26170505 394.87071274 -26.46649341 399.42662213 -26.6796875 404.015625 C-27.05520342 407.64703462 -27.986444 410.84336379 -29.0234375 414.33984375 C-29.63530343 417.53003492 -30.17408456 420.72597241 -30.69873047 423.93139648 C-31.41872571 428.20069506 -32.25441794 432.39753948 -33.29296875 436.6015625 C-36.91711235 451.79281902 -37.52105486 466.29492379 -37.71362305 481.83813477 C-37.89253574 495.2484872 -38.62001966 508.40024471 -42.09765625 521.41796875 C-44.81307183 532.0452067 -42.96912579 542.64194327 -40.66650391 553.1328125 C-31.61219008 595.45553627 -31.61219008 595.45553627 -37.7734375 609.21484375 C-39.97401647 612.27120343 -40.6799591 613.05303948 -44.0234375 614.33984375 C-47.26344493 614.75124424 -50.50988303 614.66423717 -53.7734375 614.65234375 C-54.64226562 614.66845703 -55.51109375 614.68457031 -56.40625 614.70117188 C-62.29421587 614.70559227 -66.63298981 613.71540151 -72.0234375 611.33984375 C-72.37105155 605.36481728 -71.59137518 601.56499919 -68.7109375 596.27734375 C-56.27628768 571.4080441 -63.0258933 544.70548925 -70.41650391 519.42578125 C-75.66284513 501.39491262 -80.01733513 482.72738872 -75.6015625 464.0234375 C-70.2823417 439.3321896 -72.30498261 412.41066938 -74.73629761 387.46868896 C-75.76939673 376.78041451 -76.31143065 366.20429502 -76.2734375 355.46484375 C-76.27021484 354.24966064 -76.26699219 353.03447754 -76.26367188 351.7824707 C-76.22457946 347.9665883 -76.13764158 344.15403885 -76.0234375 340.33984375 C-76.0023996 339.5717337 -75.98136169 338.80362366 -75.95968628 338.01223755 C-75.54024732 323.87807114 -74.02170307 310.02664301 -72.0859375 296.02734375 C-71.81752148 294.04243084 -71.54994142 292.05740469 -71.28320312 290.07226562 C-70.76789945 286.24371975 -70.25146081 282.41533179 -69.73339844 278.5871582 C-69.55339294 277.25486679 -69.55339294 277.25486679 -69.36975098 275.8956604 C-69.14823385 274.26084916 -68.92545531 272.62620803 -68.7010498 270.99179077 C-67.52810906 262.4139199 -66.63638445 253.94561095 -66.6484375 245.27734375 C-66.64787354 244.19952637 -66.64730957 243.12170898 -66.64672852 242.01123047 C-66.79865698 230.33681465 -68.3800184 218.91444067 -70.05078125 207.37890625 C-70.84039031 201.92703826 -71.40390066 196.50147531 -71.77954102 191.00610352 C-72.1210773 187.27245215 -72.83050725 183.63700257 -73.55078125 179.9609375 C-74.01621201 177.37991235 -74.32627328 174.82385094 -74.5859375 172.21484375 C-74.59030649 168.56520409 -74.59030649 168.56520409 -76.0234375 167.33984375 C-76.15621094 168.02691406 -76.28898437 168.71398437 -76.42578125 169.421875 C-76.60238281 170.32292969 -76.77898437 171.22398437 -76.9609375 172.15234375 C-77.13496094 173.04566406 -77.30898437 173.93898437 -77.48828125 174.859375 C-78.0234375 177.33984375 -78.0234375 177.33984375 -79.0234375 180.33984375 C-79.17986374 182.01067265 -79.30505214 183.68453426 -79.41015625 185.359375 C-79.90028838 191.1581615 -81.23183893 196.45044085 -82.8359375 202.02734375 C-85.05580245 210.08951362 -86.7655568 218.0741564 -88.0234375 226.33984375 C-91.33889559 247.72393867 -97.48959917 267.15506299 -106.82421875 286.6328125 C-108.97092186 291.47862767 -109.18455248 295.4528459 -109.2109375 300.77734375 C-109.23220703 302.72447266 -109.23220703 302.72447266 -109.25390625 304.7109375 C-109.24174861 308.19844615 -109.24174861 308.19844615 -108.02124023 310.61230469 C-106.7565571 314.06937344 -106.79785673 316.9317801 -106.828125 320.609375 C-106.8309549 321.29037766 -106.83378479 321.97138031 -106.83670044 322.67301941 C-106.84783225 324.8329783 -106.87292293 326.99251169 -106.8984375 329.15234375 C-106.90847639 330.62304086 -106.91760065 332.09374451 -106.92578125 333.56445312 C-106.94774837 337.15638661 -106.9822293 340.7480736 -107.0234375 344.33984375 C-108.9609375 344.90234375 -108.9609375 344.90234375 -111.0234375 345.33984375 C-112.90817753 343.45510372 -112.7167575 340.31237973 -113.0859375 337.77734375 C-113.26253906 336.57980469 -113.43914062 335.38226563 -113.62109375 334.1484375 C-113.75386719 333.22160156 -113.88664062 332.29476563 -114.0234375 331.33984375 C-115.3434375 331.33984375 -116.6634375 331.33984375 -118.0234375 331.33984375 C-118.40038958 336.05174477 -118.48658453 339.41354968 -116.3359375 343.71484375 C-113.06349861 347.42950411 -109.90075144 349.43663746 -105.0234375 350.33984375 C-105.3534375 351.65984375 -105.6834375 352.97984375 -106.0234375 354.33984375 C-113.74233823 353.67442127 -119.20492394 351.69900098 -125.0234375 346.33984375 C-136.54852194 330.97306449 -129.2803258 300.72959366 -128.0234375 282.33984375 C-127.97251953 281.5914624 -127.92160156 280.84308105 -127.86914062 280.07202148 C-125.78532228 249.79400898 -121.70271762 220.66999915 -113.109375 191.51171875 C-108.35879626 175.37910679 -105.32538244 159.22874461 -104.5859375 142.40234375 C-103.26460748 113.10710757 -103.26460748 113.10710757 -94.0234375 104.33984375 C-88.58945884 100.9925129 -82.63799081 98.77106957 -76.7109375 96.46484375 C-69.48131174 93.64616118 -62.77420254 90.1733139 -56.0234375 86.33984375 C-54.76361393 85.64475727 -53.50317763 84.9507804 -52.2421875 84.2578125 C-50.98133015 83.55678161 -49.72090327 82.85497583 -48.4609375 82.15234375 C-47.32527344 81.51941406 -46.18960938 80.88648437 -45.01953125 80.234375 C-41.59738875 78.07043874 -38.85326826 75.99950527 -37.0234375 72.33984375 C-36.54217015 64.88019983 -37.9883077 58.49913965 -40.0234375 51.33984375 C-40.64734375 51.20578125 -41.27125 51.07171875 -41.9140625 50.93359375 C-44.0234375 50.33984375 -44.0234375 50.33984375 -45.7734375 48.83984375 C-47.65122369 45.08427136 -47.26133369 41.46337769 -47.0234375 37.33984375 C-46.3634375 37.33984375 -45.7034375 37.33984375 -45.0234375 37.33984375 C-45.17941406 36.49679688 -45.33539063 35.65375 -45.49609375 34.78515625 C-47.03267 24.74619139 -47.05639142 15.85882313 -41.9296875 6.875 C-32.71157487 -5.38433422 -12.77195255 -7.71015865 0 0 Z " fill="#F9AE8A" transform="translate(158.0234375,18.66015625)"/>
<path d="M0 0 C6.60042927 4.44902353 10.71255623 9.33838813 13 17 C13.41051273 20.69124968 13.34042005 24.2936328 13.1875 28 C13.13548999 29.87489759 13.08710447 31.74990052 13.04296875 33.625 C13.01227295 34.44226562 12.98157715 35.25953125 12.94995117 36.1015625 C12.78240096 38.01180965 12.78240096 38.01180965 14 39 C14.39867524 43.14622254 14.40173791 45.34890752 12.1875 48.9375 C10 51 10 51 7 51 C5.76006376 56.30885323 4.59205339 61.57284396 4 67 C3.88785156 67.66 3.77570313 68.32 3.66015625 69 C3.31745293 71.37931087 3.31745293 71.37931087 4 75 C5.47487891 76.57295561 5.47487891 76.57295561 7.453125 77.875 C8.18200928 78.38877197 8.91089355 78.90254395 9.66186523 79.43188477 C21.51717109 87.38287459 33.17891101 94.00712242 46.765625 98.5 C52.74537904 100.52523475 58.60906876 102.8090652 62.8125 107.6875 C63.62654297 108.59048828 63.62654297 108.59048828 64.45703125 109.51171875 C69.13648585 117.05807971 69.62611399 125.29015678 70.27734375 133.9772644 C70.55359099 137.57400563 70.88428322 141.16571638 71.21484375 144.7578125 C71.280737 145.47410324 71.34663025 146.19039398 71.41452026 146.9283905 C73.226149 166.29402409 77.80992992 184.63707465 83.02734375 203.32397461 C89.31682703 225.90299522 92.10858513 248.11966358 93.74560547 271.47363281 C94.14923322 277.06864174 94.60663499 282.65904993 95.0625 288.25 C95.3054078 291.28915569 95.54713428 294.32840318 95.78857422 297.36767578 C95.96942489 299.61932925 96.15767153 301.87020018 96.34765625 304.12109375 C96.62969806 307.74791304 96.83912643 311.36571977 97 315 C97.03931641 315.85754883 97.07863281 316.71509766 97.11914062 317.59863281 C98.03097782 340.12410258 98.03097782 340.12410258 92 347 C87.612913 351.33201896 83.15552204 353.95472267 77 355 C74.0625 354.625 74.0625 354.625 72 354 C72 353.01 72 352.02 72 351 C73.051875 350.773125 74.10375 350.54625 75.1875 350.3125 C79.17737846 349.17947163 81.33942076 347.20834555 84 344 C85.00496852 340.98509443 85.10335303 338.95818308 85.0625 335.8125 C85.05347656 334.91144531 85.04445313 334.01039063 85.03515625 333.08203125 C85.02355469 332.39496094 85.01195312 331.70789063 85 331 C84.01 331 83.02 331 82 331 C81.80664062 331.90363281 81.61328125 332.80726563 81.4140625 333.73828125 C81.15367187 334.91777344 80.89328125 336.09726562 80.625 337.3125 C80.36976563 338.48425781 80.11453125 339.65601563 79.8515625 340.86328125 C79 344 79 344 77 347 C76.01 346.67 75.02 346.34 74 346 C73.95041052 341.53427636 73.914191 337.06870039 73.89013672 332.6027832 C73.88010455 331.08485114 73.86647562 329.56693827 73.84912109 328.04907227 C73.82474965 325.8620936 73.81348905 323.67537136 73.8046875 321.48828125 C73.79421387 320.17384033 73.78374023 318.85939941 73.77294922 317.50512695 C73.99038925 314.14836729 74.62726212 312.02465427 76 309 C77.74012645 295.26304025 73.11613798 284.64476318 67.4375 272.4375 C58.986783 254.05584487 55.96391298 233.96345486 52.375 214.1875 C51.30716467 208.31124642 49.9170538 202.57628926 48.4140625 196.80126953 C47.07146876 191.54407836 46.18727816 186.29863465 45.4375 180.9296875 C44.83497404 176.89491547 43.94156287 172.96801494 43 169 C42.67 169 42.34 169 42 169 C40.5665903 179.29043745 39.20418915 189.58314585 38.203125 199.92578125 C38.10624138 200.92463348 38.10624138 200.92463348 38.00740051 201.94366455 C37.69156612 205.22607299 37.38606801 208.5091515 37.09057617 211.79345703 C36.14010559 221.92327748 36.14010559 221.92327748 34.9375 226.0078125 C33.31902246 231.84498258 33.57382756 237.92521021 33.5625 243.9375 C33.55890472 244.93769669 33.55890472 244.93769669 33.55523682 245.95809937 C33.55479056 261.04998121 35.88085944 275.60222207 38.41894531 290.43896484 C39.39983339 296.4504075 40.03597826 302.48050218 40.640625 308.5390625 C40.87973929 310.84183707 41.17007301 313.13987866 41.51171875 315.4296875 C44.7457125 339.0766498 43.57578057 363.79225436 42.0625 387.5625 C42.01902435 388.2491272 41.97554871 388.93575439 41.93075562 389.64318848 C41.20639331 400.8279221 41.20639331 400.8279221 40.47924805 404.95727539 C39.49724792 411.19195068 39.75882722 417.57346498 39.75 423.875 C39.74766357 424.63597992 39.74532715 425.39695984 39.74291992 426.18099976 C39.73196484 435.67569297 40.08977496 444.90476097 41.5 454.3125 C45.21697843 479.50922034 42.98974597 502.3537264 35.1640625 526.359375 C27.46800505 550.4289238 26.1792724 573.71176605 35.61157227 597.27734375 C38.79293099 605.39696843 38.79293099 605.39696843 38 610 C36.6796875 612.34765625 36.6796875 612.34765625 34 614 C30.36406232 614.56217071 26.79650616 614.51169602 23.125 614.4375 C21.65353516 614.44813477 21.65353516 614.44813477 20.15234375 614.45898438 C14.73606028 614.41147312 10.61325329 614.15214252 6 611 C3.8972391 607.84585865 3.75086748 607.12213274 3.76953125 603.52734375 C3.77057861 602.636521 3.77162598 601.74569824 3.77270508 600.82788086 C3.7858374 599.87405518 3.79896973 598.92022949 3.8125 597.9375 C3.82112061 596.95467041 3.82974121 595.97184082 3.83862305 594.95922852 C3.87458252 591.97217869 3.93176062 588.98647638 4 586 C4.01933594 585.14664063 4.03867187 584.29328125 4.05859375 583.4140625 C4.29819464 574.70386554 5.06788364 566.60761694 7.234375 558.1328125 C10.5221325 544.67984557 11.68274442 530.76218721 7.83154297 517.36474609 C6.92486412 513.69597102 6.36246257 510.05177125 5.92578125 506.3046875 C5.83989243 505.56903564 5.7540036 504.83338379 5.66551208 504.07543945 C4.64203392 494.60320043 4.61776096 485.10210935 4.54370117 475.58398438 C4.43775663 464.08143359 3.34007152 453.26506723 1 442 C0.802854 441.02345459 0.60570801 440.04690918 0.40258789 439.04077148 C0.09228626 437.51239345 -0.22029938 435.98447738 -0.53515625 434.45703125 C-1.10204478 431.46062045 -1.55120825 428.45379806 -2 425.4375 C-2.53549652 421.85922094 -3.10229931 418.33276736 -3.9375 414.8125 C-6.96741774 401.72388659 -8.46640449 388.55076788 -9.3374939 375.16848755 C-10.28681105 360.6752224 -11.5510793 346.32879133 -14 332 C-15.32 332 -16.64 332 -18 332 C-19.80715268 340.3754576 -20.5136293 348.72271121 -21.09011841 357.24731445 C-22.14950195 372.58785139 -23.87814427 387.7801919 -26.0625 403 C-26.19233276 403.91862823 -26.32216553 404.83725647 -26.45593262 405.78372192 C-26.82805987 408.39879949 -27.21042425 411.01212049 -27.59765625 413.625 C-27.70906448 414.40048691 -27.82047272 415.17597382 -27.93525696 415.97496033 C-28.53839067 419.92189179 -29.45428341 423.33181862 -31 427 C-31.31647151 428.61370925 -31.57619001 430.23948039 -31.78125 431.87109375 C-31.90113281 432.77537109 -32.02101563 433.67964844 -32.14453125 434.61132812 C-32.26183594 435.54396484 -32.37914062 436.47660156 -32.5 437.4375 C-32.73410737 439.29106442 -32.97355691 441.14396317 -33.21875 442.99609375 C-33.3724707 444.22090454 -33.3724707 444.22090454 -33.52929688 445.47045898 C-34 448 -34 448 -35.03173828 450.72729492 C-36.29722575 455.00461703 -36.27944301 458.93136478 -36.2734375 463.3671875 C-36.29081111 465.23129072 -36.30907358 467.09538583 -36.328125 468.95947266 C-36.33521484 469.9271759 -36.34230469 470.89487915 -36.34960938 471.89190674 C-36.70295621 513.40591241 -36.70295621 513.40591241 -42 524 C-42.66678631 537.44427272 -41.22925185 550.33497411 -38.4375 563.5 C-36.9003388 570.99948341 -36.21894348 578.35734492 -36 586 C-35.97276855 586.86093262 -35.94553711 587.72186523 -35.91748047 588.60888672 C-35.83916408 591.42679908 -35.78973784 594.24379527 -35.75 597.0625 C-35.71773315 598.40175537 -35.71773315 598.40175537 -35.68481445 599.76806641 C-35.65905449 604.9035335 -35.97589364 608.63411672 -39 613 C-43.39247535 615.72828564 -47.72794833 615.36767922 -52.75 615.375 C-53.61882812 615.39949219 -54.48765625 615.42398438 -55.3828125 615.44921875 C-61.66214801 615.47750405 -65.58760993 614.18449927 -71 611 C-71.85394096 604.73776633 -69.66598741 600.86381971 -66.60546875 595.453125 C-62.12025004 585.80608525 -61.39523378 576.34931248 -61.4375 565.8125 C-61.43731873 565.11368713 -61.43713745 564.41487427 -61.43695068 563.69488525 C-61.48290664 551.16030936 -63.44421895 539.8271695 -67.13574219 527.8203125 C-68.60301744 523.03218716 -69.92412366 518.20385486 -71.25 513.375 C-71.62946777 511.9986438 -71.62946777 511.9986438 -72.01660156 510.59448242 C-76.05573646 495.69507599 -77.60876289 480.53907053 -74.92118835 465.27322388 C-72.79949403 453.19241031 -72.57282943 441.36122232 -72.6875 429.125 C-72.69618126 427.0394703 -72.70464206 424.95393966 -72.71289062 422.8684082 C-72.79245274 410.42420374 -73.28249426 398.0983981 -74.28125 385.69458008 C-75.43285822 370.81025252 -75.25571903 355.91627213 -75 341 C-74.98598145 340.0615625 -74.97196289 339.123125 -74.95751953 338.15625 C-74.68858941 324.31605264 -72.62930401 310.64724613 -70.78092957 296.94941711 C-69.71232532 288.9586925 -68.823579 280.94756983 -67.95166016 272.93334961 C-67.83999512 271.92925049 -67.72833008 270.92515137 -67.61328125 269.890625 C-67.51829346 269.01438477 -67.42330566 268.13814453 -67.32543945 267.23535156 C-67 265 -67 265 -66 262 C-65.75995535 257.37903955 -65.8147949 252.75150913 -65.8125 248.125 C-65.80025391 246.86429688 -65.78800781 245.60359375 -65.77539062 244.3046875 C-65.76413954 237.01398286 -66.27145184 230.10175681 -67.50756836 222.91748047 C-68.17587 218.95803344 -68.53016894 214.99792644 -68.875 211 C-69.70589294 202.09389411 -70.84737622 193.2354937 -72.0625 184.375 C-72.23700684 183.08722656 -72.41151367 181.79945313 -72.59130859 180.47265625 C-72.75840332 179.27253906 -72.92549805 178.07242188 -73.09765625 176.8359375 C-73.24726807 175.75876465 -73.39687988 174.6815918 -73.55102539 173.57177734 C-73.86950375 171.02205077 -73.86950375 171.02205077 -75 169 C-76.73520916 176.07620755 -78.23517475 183.12979906 -79.4375 190.3125 C-80.47392207 196.47200443 -81.84301109 202.45140406 -83.45117188 208.49194336 C-85.00642587 214.56110198 -85.9716374 220.68853369 -86.9375 226.875 C-89.64974372 243.9833081 -94.55397655 260.05427881 -101.05859375 276.1015625 C-101.41977295 276.99375488 -101.78095215 277.88594727 -102.15307617 278.80517578 C-102.86906617 280.56415589 -103.59159885 282.32049102 -104.3215332 284.07373047 C-106.94475804 290.47814017 -108.1426216 296.10634791 -108.1875 303.0625 C-108.20876953 304.56490234 -108.20876953 304.56490234 -108.23046875 306.09765625 C-108.16691242 308.9632447 -108.16691242 308.9632447 -106.99780273 311.22705078 C-105.74622594 314.7052522 -105.77428791 317.57598069 -105.8046875 321.26953125 C-105.8075174 321.95053391 -105.81034729 322.63153656 -105.81326294 323.33317566 C-105.82439475 325.49313455 -105.84948543 327.65266794 -105.875 329.8125 C-105.88503889 331.28319711 -105.89416315 332.75390076 -105.90234375 334.22460938 C-105.92431087 337.81654286 -105.9587918 341.40822985 -106 345 C-107.32 345.33 -108.64 345.66 -110 346 C-112.20399168 341.44508386 -112.58846263 336.97093824 -113 332 C-114.32 331.67 -115.64 331.34 -117 331 C-117.5896776 339.05933157 -117.5896776 339.05933157 -114 346 C-110.78071602 349.04984798 -108.42350331 350.49445676 -104 351 C-104 352.32 -104 353.64 -104 355 C-112.98740955 354.25594431 -118.53216826 352.48384122 -125 346 C-134.95396422 332.06445009 -128.59734842 306.35654227 -127.13989258 290.17236328 C-126.38232632 281.74016234 -125.74133578 273.33866784 -125.4375 264.875 C-124.38145342 238.30851981 -118.02205736 213.15906703 -111.07202148 187.59765625 C-110.88363205 186.90124527 -110.69524261 186.20483429 -110.50114441 185.48731995 C-109.98975505 183.60002766 -109.47404744 181.71390694 -108.95800781 179.82788086 C-107.01753752 172.0744064 -105.70321934 164.43841298 -105.03515625 156.4765625 C-104.87325934 154.69529318 -104.71114318 152.91404377 -104.54882812 151.1328125 C-104.30423388 148.37984189 -104.06264337 145.62666436 -103.82543945 142.87304688 C-101.17885983 112.43058117 -101.17885983 112.43058117 -93 105 C-87.12308233 101.09306035 -80.279547 98.91978501 -73.74047852 96.36401367 C-67.19584371 93.76240442 -61.10304585 90.51085368 -55 87 C-54.35401855 86.63438965 -53.70803711 86.2687793 -53.04248047 85.89208984 C-50.99978734 84.7325654 -48.96741335 83.55673475 -46.9375 82.375 C-46.30585938 82.01494873 -45.67421875 81.65489746 -45.0234375 81.28393555 C-41.18116628 79.00440234 -38.43855221 76.75943466 -36 73 C-35.3120963 67.20195451 -36.48142477 62.6913538 -38.34375 57.19921875 C-39 55 -39 55 -39 52 C-39.598125 51.938125 -40.19625 51.87625 -40.8125 51.8125 C-43 51 -43 51 -44.6875 48.875 C-46.1979489 45.56639765 -46.64657491 42.6049359 -47 39 C-46.01 38.67 -45.02 38.34 -44 38 C-44.15726562 37.16984375 -44.31453125 36.3396875 -44.4765625 35.484375 C-45.87389722 26.18271401 -46.57256759 16.37973931 -41.6171875 8.05078125 C-38.87536537 4.5738329 -35.79676905 2.23382723 -32 0 C-30.989375 -0.61875 -29.97875 -1.2375 -28.9375 -1.875 C-20.42702343 -5.1542662 -8.08195023 -4.12400885 0 0 Z " fill="#F9AE8A" transform="translate(449,18)"/>
<path d="M0 0 C0.33 0 0.66 0 1 0 C1.81374835 6.40372274 2.14762864 12.63851834 2.1328125 19.08984375 C2.13376923 20.03324112 2.13472595 20.97663849 2.13571167 21.94862366 C2.13638856 23.93783637 2.13456876 25.92705136 2.13037109 27.91625977 C2.12507022 30.89800233 2.13030482 33.87959051 2.13671875 36.86132812 C2.14037796 48.60847935 1.80347073 60.28012568 1 72 C0.67 72 0.34 72 0 72 C-0.83783106 63.55408963 -1.14774132 55.20336887 -1.1328125 46.71875 C-1.13376923 45.50223755 -1.13472595 44.2857251 -1.13571167 43.03234863 C-1.13638728 40.48445585 -1.1345766 37.93656128 -1.13037109 35.38867188 C-1.12497657 31.48303412 -1.13035619 27.57750941 -1.13671875 23.671875 C-1.13605859 21.18749975 -1.13477871 18.70312456 -1.1328125 16.21875 C-1.13483673 15.05210815 -1.13686096 13.88546631 -1.13894653 12.68347168 C-1.13579437 11.60134399 -1.13264221 10.51921631 -1.12939453 9.40429688 C-1.12859894 8.45453979 -1.12780334 7.50478271 -1.12698364 6.52624512 C-1.01017411 4.20240643 -0.6581918 2.22410762 0 0 Z " fill="#EC8E6D" transform="translate(433,175)"/>
<path d="M0 0 C0.8306233 2.39957841 1.02030279 3.89201016 0.546875 6.41015625 C-0.2354001 11.54523348 -0.26490816 16.62498923 -0.3125 21.8125 C-0.34150391 22.85470703 -0.37050781 23.89691406 -0.40039062 24.97070312 C-0.45495561 31.65701294 0.21633552 37.32410407 4 43 C7.48804095 45.32536063 8.90140754 45.33457898 13 45 C15.30230766 44.10168984 15.30230766 44.10168984 17 43 C16.265625 44.9375 16.265625 44.9375 15 47 C10.71889158 48.64394563 6.88540861 48.35082228 2.6875 46.6875 C-3.79555098 40.20444902 -4.38115606 32.92935293 -4.4375 24.125 C-4.36169708 15.8571223 -3.75941001 7.51882001 0 0 Z " fill="#ED8F6F" transform="translate(460,141)"/>
<path d="M0 0 C5.89808658 5.89808658 5.33765271 16.93387215 5.4375 24.75 C5.47061279 26.07994995 5.47061279 26.07994995 5.50439453 27.43676758 C5.48130214 34.69796555 3.39837194 39.53568498 -0.6875 45.4375 C-4.22156033 47.8253786 -7.76842415 48.35388624 -12 48 C-15.0625 46.0625 -15.0625 46.0625 -17 44 C-16.67 43.34 -16.34 42.68 -16 42 C-15.46375 42.495 -14.9275 42.99 -14.375 43.5 C-11.29889257 45.44280469 -9.58110811 45.52224493 -6 45 C-2.17017352 42.26440966 -0.23674267 38.46577243 1 34 C1.38324349 29.86746103 1.32823642 25.77153032 1.25 21.625 C1.24484375 20.53960937 1.2396875 19.45421875 1.234375 18.3359375 C1.17464093 12.15346145 0.80016037 6.13026089 0 0 Z " fill="#ED8F6F" transform="translate(405,141)"/>
<path d="M0 0 C0.969375 0.185625 1.93875 0.37125 2.9375 0.5625 C3.948125 0.706875 4.95875 0.85125 6 1 C6.33 0.67 6.66 0.34 7 0 C8.66617115 -0.04063832 10.33388095 -0.042721 12 0 C11.1850708 0.62994873 10.3701416 1.25989746 9.53051758 1.90893555 C6.05838471 6.15019693 6.35432547 9.14469314 6.51171875 14.45703125 C6.51879349 15.35999435 6.52586823 16.26295746 6.53315735 17.19328308 C6.56106681 20.06721088 6.62379768 22.93916472 6.6875 25.8125 C6.71258738 27.76494575 6.73539978 29.71742215 6.75585938 31.66992188 C6.81088211 36.44737102 6.89713002 41.22335126 7 46 C6.01 46.495 6.01 46.495 5 47 C3.83975004 39.64254191 3.85174703 32.37457427 3.875 24.9375 C3.87113281 23.69677734 3.86726563 22.45605469 3.86328125 21.17773438 C3.86951341 15.35378236 3.92682901 9.73209584 5 4 C4.360625 3.71125 3.72125 3.4225 3.0625 3.125 C1 2 1 2 0 0 Z " fill="#EF8F70" transform="translate(427,298)"/>
<path d="M0 0 C1.32 0.33 2.64 0.66 4 1 C4.56816102 11.83714547 4.56816102 11.83714547 1 16 C-1.70035338 18.79346901 -3.86613533 20.87675384 -7.875 21.3125 C-8.57625 21.209375 -9.2775 21.10625 -10 21 C-9.34 19.02 -8.68 17.04 -8 15 C-7.67 15.66 -7.34 16.32 -7 17 C-3.79254991 14.42866432 -3.24558294 11.87425694 -2.375 7.9375 C-1.06622517 2.13245033 -1.06622517 2.13245033 0 0 Z " fill="#F7F5EF" transform="translate(239,348)"/>
<path d="M0 0 C0.33 0 0.66 0 1 0 C1.9705689 8.08807419 -1.21063091 14.9744544 -5 22 C-8.76499581 24.5099972 -10.54293606 24.61476744 -15 24 C-19.96702413 19.62428826 -23.0111291 13.26967875 -25 7 C-24.55126953 4.83837891 -24.55126953 4.83837891 -24 3 C-23.45730469 4.04800781 -22.91460937 5.09601563 -22.35546875 6.17578125 C-21.63310441 7.55484044 -20.91043199 8.93373829 -20.1875 10.3125 C-19.83107422 11.00279297 -19.47464844 11.69308594 -19.10742188 12.40429688 C-18.58051758 13.40493164 -18.58051758 13.40493164 -18.04296875 14.42578125 C-17.72352295 15.03848877 -17.40407715 15.65119629 -17.07495117 16.2824707 C-15.89052756 18.17491224 -14.71320429 19.56703454 -13 21 C-10.37429296 21.25069913 -10.37429296 21.25069913 -8 21 C-7.72285156 20.2884375 -7.44570312 19.576875 -7.16015625 18.84375 C-5.61985724 15.06820226 -3.86522851 11.40368753 -2.12109375 7.71875 C-1.05310474 5.12878361 -0.4446965 2.75811764 0 0 Z " fill="#EC8F6E" transform="translate(153,324)"/>
<path d="M0 0 C1.32 0.33 2.64 0.66 4 1 C4.56816102 11.83714547 4.56816102 11.83714547 1 16 C-0.93041213 17.99529993 -2.67873288 19.38932485 -5 21 C-7.375 20.8125 -7.375 20.8125 -9 20 C-7.35 19.67 -5.7 19.34 -4 19 C-4.20625 18.484375 -4.4125 17.96875 -4.625 17.4375 C-5.51707653 11.63900257 -2.06987952 5.36286966 0 0 Z " fill="#F8F6F1" transform="translate(531,348)"/>
<path d="M0 0 C3.69230769 0.69230769 3.69230769 0.69230769 5 2 C5.49769292 5.3254936 5.90161069 8.65788488 6.3046875 11.99609375 C6.70793225 15.30039251 6.70793225 15.30039251 10 17 C9.01 17.33 8.02 17.66 7 18 C7.33 18.66 7.66 19.32 8 20 C4.62917442 18.55536047 2.41962708 16.75336875 0 14 C-0.99293628 11.02119115 -1.13406411 8.98398802 -1.125 5.875 C-1.12757813 4.98554688 -1.13015625 4.09609375 -1.1328125 3.1796875 C-1 1 -1 1 0 0 Z " fill="#F8F6F0" transform="translate(332,348)"/>
<path d="M0 0 C1.67542976 0.28604898 3.34385343 0.61781233 5 1 C5.10957031 1.91523438 5.21914063 2.83046875 5.33203125 3.7734375 C5.56986328 5.55621094 5.56986328 5.55621094 5.8125 7.375 C5.96332031 8.55835938 6.11414062 9.74171875 6.26953125 10.9609375 C6.70699334 14.29532084 6.70699334 14.29532084 10 16 C8.02 16.33 6.04 16.66 4 17 C-1.14188457 10.69704472 -1.14188457 10.69704472 -1.125 5.4375 C-1.12886719 4.22900391 -1.12886719 4.22900391 -1.1328125 2.99609375 C-1 1 -1 1 0 0 Z " fill="#F8F1E8" transform="translate(40,349)"/>
<path d="M0 0 C0.33 0 0.66 0 1 0 C1.33 6.6 1.66 13.2 2 20 C2.66 19.67 3.32 19.34 4 19 C4.66 19.33 5.32 19.66 6 20 C6.31563182 25.26053037 5.66590937 28.44573816 3 33 C2.34 33 1.68 33 1 33 C-0.48679725 30.02640551 -0.11112605 27.33700821 -0.09765625 24.0234375 C-0.09553383 22.99556625 -0.09553383 22.99556625 -0.09336853 21.94692993 C-0.08776675 19.75624239 -0.07521406 17.5656567 -0.0625 15.375 C-0.05748522 13.89062648 -0.05292228 12.40625135 -0.04882812 10.921875 C-0.03779677 7.28121685 -0.02053099 3.64061836 0 0 Z " fill="#F6B596" transform="translate(231,332)"/>
<path d="M0 0 C0.66 0 1.32 0 2 0 C2.33 2.31 2.66 4.62 3 7 C4.98 7 6.96 7 9 7 C9.33 6.34 9.66 5.68 10 5 C10.721875 5.639375 11.44375 6.27875 12.1875 6.9375 C14.98191184 8.98673535 16.61663274 9.61332946 20 10 C20 11.32 20 12.64 20 14 C13.4751522 13.45981652 8.46683578 13.01832019 3.25 8.75 C0.75936748 5.70589359 0.27008786 3.87125927 0 0 Z " fill="#F3B392" transform="translate(325,359)"/>
<path d="M0 0 C0 0.99 0 1.98 0 3 C-1.64453125 4.3515625 -1.64453125 4.3515625 -3.8125 5.625 C-4.52019531 6.05039062 -5.22789062 6.47578125 -5.95703125 6.9140625 C-10.13719723 9.13602453 -13.69932518 9.19488399 -18.375 9.25 C-19.68210937 9.27578125 -20.98921875 9.3015625 -22.3359375 9.328125 C-26.12127454 8.98913959 -27.97344322 8.22025401 -31 6 C-28.29180719 4.64590359 -25.89421991 5.02157443 -22.92944336 5.11547852 C-14.89817828 5.35356747 -8.13348198 5.19914187 -1 1 C-0.67 0.67 -0.34 0.34 0 0 Z " fill="#ED906F" transform="translate(465,343)"/>
<path d="M0 0 C0.33 0 0.66 0 1 0 C1 10.23 1 20.46 1 31 C-0.32 31.33 -1.64 31.66 -3 32 C-4.99785435 27.8794254 -5.17835515 24.54805635 -5 20 C-3.33333333 20 -1.66666667 20 0 20 C0 13.4 0 6.8 0 0 Z " fill="#F5B596" transform="translate(342,332)"/>
<path d="M0 0 C0.99 0.495 0.99 0.495 2 1 C2 8.26 2 15.52 2 23 C2.66 23 3.32 23 4 23 C4.25 28.625 4.25 28.625 2 32 C1.34 32 0.68 32 0 32 C0 21.44 0 10.88 0 0 Z " fill="#F8FAF1" transform="translate(200,359)"/>
<path d="M0 0 C0.54269531 0.27714844 1.08539063 0.55429687 1.64453125 0.83984375 C2.71767578 1.38318359 2.71767578 1.38318359 3.8125 1.9375 C4.87404297 2.47697266 4.87404297 2.47697266 5.95703125 3.02734375 C9.1896916 4.56641149 11.91268764 5.15026049 15.44921875 5.31640625 C16.29677734 5.35830078 17.14433594 5.40019531 18.01757812 5.44335938 C18.89865234 5.48267578 19.77972656 5.52199219 20.6875 5.5625 C22.02651367 5.62727539 22.02651367 5.62727539 23.39257812 5.69335938 C25.59490108 5.79935353 27.79733473 5.90142051 30 6 C25.99755971 9.77114349 22.16014816 9.56370042 16.87060547 9.56176758 C10.54338777 9.34287257 5.66108788 7.25712693 1 3 C0.67 2.01 0.34 1.02 0 0 Z " fill="#ED8F6E" transform="translate(400,343)"/>
<path d="M0 0 C0.33 0 0.66 0 1 0 C1.38831218 2.95714663 1.76115547 5.91483273 2.125 8.875 C2.23714844 9.71675781 2.34929687 10.55851563 2.46484375 11.42578125 C2.56152344 12.23144531 2.65820312 13.03710938 2.7578125 13.8671875 C2.8520752 14.61081543 2.94633789 15.35444336 3.04345703 16.12060547 C3 18 3 18 1 20 C0.67 18.35 0.34 16.7 0 15 C-0.33 15 -0.66 15 -1 15 C-1.03738281 15.81984375 -1.07476562 16.6396875 -1.11328125 17.484375 C-1.21189453 19.10085937 -1.21189453 19.10085937 -1.3125 20.75 C-1.37050781 21.81734375 -1.42851562 22.8846875 -1.48828125 23.984375 C-2.03090154 27.1821068 -2.85071145 28.62598691 -5 31 C-4.62246302 20.31570338 -2.49924301 10.35732802 0 0 Z " fill="#F6F2E9" transform="translate(374,182)"/>
<path d="M0 0 C2 1.625 2 1.625 3 3.625 C2.01 3.295 1.02 2.965 0 2.625 C-8.98078841 1.82380933 -18.11132849 3.4700914 -27 4.625 C-26 2.625 -26 2.625 -23.15625 1.5546875 C-6.86266094 -3.14538627 -6.86266094 -3.14538627 0 0 Z " fill="#ED8F6F" transform="translate(134,113.375)"/>
<path d="M0 0 C0.33 0 0.66 0 1 0 C1.02918874 3.70831663 1.04686218 7.41660342 1.0625 11.125 C1.07087891 12.17171875 1.07925781 13.2184375 1.08789062 14.296875 C1.09111328 15.31523437 1.09433594 16.33359375 1.09765625 17.3828125 C1.10289307 18.31496582 1.10812988 19.24711914 1.11352539 20.20751953 C0.9914692 23.20983936 0.50235712 26.03934015 0 29 C-0.13909895 31.01619049 -0.2435316 33.03501874 -0.31640625 35.0546875 C-0.37924805 36.71757812 -0.37924805 36.71757812 -0.44335938 38.4140625 C-0.48267578 39.55617188 -0.52199219 40.69828125 -0.5625 41.875 C-0.60568359 43.0403125 -0.64886719 44.205625 -0.69335938 45.40625 C-0.79901629 48.27072625 -0.90111799 51.13528321 -1 54 C-1.33 54 -1.66 54 -2 54 C-2.21327376 35.88321422 -2.29479545 18.01004642 0 0 Z " fill="#F7E9DB" transform="translate(198,406)"/>
<path d="M0 0 C-0.0721875 1.11890625 -0.144375 2.2378125 -0.21875 3.390625 C-1.10369963 18.26282654 -1.10491281 33.1056096 -1 48 C-3.09020153 44.86469771 -3.2474595 44.1816823 -3.22705078 40.62036133 C-3.22689972 39.73967484 -3.22674866 38.85898834 -3.22659302 37.95161438 C-3.21627045 37.00465195 -3.20594788 36.05768951 -3.1953125 35.08203125 C-3.1924826 34.10965012 -3.18965271 33.13726898 -3.18673706 32.13542175 C-3.17553599 29.02765634 -3.15043148 25.92017841 -3.125 22.8125 C-3.11497011 20.70638437 -3.10584427 18.60026422 -3.09765625 16.49414062 C-3.07559688 11.3293162 -3.04106746 6.16470685 -3 1 C-1 0 -1 0 0 0 Z " fill="#F6F0E5" transform="translate(322,311)"/>
<path d="M0 0 C1.32 0.66 2.64 1.32 4 2 C-1.32900386 7.14581936 -6.43722688 10.71482668 -14 11.1875 C-14.66 11.125625 -15.32 11.06375 -16 11 C-16.33 9.68 -16.66 8.36 -17 7 C-13.535 6.505 -13.535 6.505 -10 6 C-10 6.66 -10 7.32 -10 8 C-9.0925 7.175 -8.185 6.35 -7.25 5.5 C-4.46375503 2.96705003 -4.12741739 3 0 3 C0 2.01 0 1.02 0 0 Z " fill="#F3B596" transform="translate(246,362)"/>
<path d="M0 0 C1.5778125 0.495 1.5778125 0.495 3.1875 1 C10.95539511 2.95235867 19.18850679 2.4661211 27 1 C23.65022432 4.70868022 21.5809033 5.7751977 16.66796875 6.203125 C10.96148534 6.31096406 7.00602488 5.81588899 2 3 C1.34 2.01 0.68 1.02 0 0 Z " fill="#EC8F6C" transform="translate(97,189)"/>
<path d="M0 0 C0.33 0 0.66 0 1 0 C3.51636677 13.61534164 3.20381134 27.20197236 3 41 C2.67 41 2.34 41 2 41 C1.93941406 39.91460937 1.87882812 38.82921875 1.81640625 37.7109375 C1.73193936 36.26561514 1.64729449 34.82030318 1.5625 33.375 C1.52318359 32.66214844 1.48386719 31.94929688 1.44335938 31.21484375 C1.25877654 28.11953159 1.02711763 25.14834938 0.46875 22.09375 C-0.18754208 17.76222224 -0.1053108 13.49828834 -0.0625 9.125 C-0.05798828 8.24585938 -0.05347656 7.36671875 -0.04882812 6.4609375 C-0.03712337 4.30726197 -0.01919069 2.15362183 0 0 Z " fill="#F7EFE3" transform="translate(89,235)"/>
<path d="M0 0 C0.66 0.33 1.32 0.66 2 1 C-1.0631402 4.54679392 -4.30049778 5.82598182 -8.9375 6.30078125 C-9.948125 6.30464844 -10.95875 6.30851563 -12 6.3125 C-13.010625 6.32925781 -14.02125 6.34601563 -15.0625 6.36328125 C-18.38205734 5.95275089 -20.27885971 4.89579443 -23 3 C-18.30795322 1.43598441 -13.57316558 2.03912314 -8.6640625 2.16015625 C-5.19375988 2.00846925 -3.12918332 1.35977239 0 0 Z " fill="#EC8D6B" transform="translate(183,189)"/>
<path d="M0 0 C5.75172917 0.07122036 10.69634665 1.15563857 16.01928711 3.25976562 C16.01928711 3.58976562 16.01928711 3.91976562 16.01928711 4.25976562 C10.84387328 4.35020975 6.0992939 4.27576698 1.01928711 3.25976562 C-5.8486307 2.69778874 -5.8486307 2.69778874 -11.98071289 5.25976562 C-9.03262544 -0.83294844 -6.6993465 0.03201982 0 0 Z " fill="#EC8C6D" transform="translate(156.980712890625,112.740234375)"/>
<path d="M0 0 C0.33 0 0.66 0 1 0 C1.80046958 5.72008158 2.19429599 11.32222806 2.31640625 17.09375 C2.33718735 17.92588013 2.35796844 18.75801025 2.37937927 19.61535645 C2.44416194 22.24349636 2.50342412 24.87172625 2.5625 27.5 C2.60575322 29.29427971 2.64936954 31.0885507 2.69335938 32.8828125 C2.79976894 37.25511885 2.90123163 41.62751463 3 46 C2.34 46 1.68 46 1 46 C0.67 46.66 0.34 47.32 0 48 C0 32.16 0 16.32 0 0 Z " fill="#F6F8EC" transform="translate(491,348)"/>
<path d="M0 0 C0.74507812 0.00451172 1.49015625 0.00902344 2.2578125 0.01367188 C4.0885764 0.02540754 5.91929873 0.0433415 7.75 0.0625 C8.08 0.7225 8.41 1.3825 8.75 2.0625 C5.75293305 2.93213087 3.10043474 3.18013099 -0.015625 3.16015625 C-0.90507812 3.15693359 -1.79453125 3.15371094 -2.7109375 3.15039062 C-3.63132813 3.14201172 -4.55171875 3.13363281 -5.5 3.125 C-6.43585938 3.12048828 -7.37171875 3.11597656 -8.3359375 3.11132812 C-10.64069041 3.09956918 -12.94531227 3.08313426 -15.25 3.0625 C-10.27209342 -0.25610439 -5.85809905 -0.06727499 0 0 Z " fill="#F2BE9E" transform="translate(142.25,14.9375)"/>
<path d="M0 0 C4.83712661 7.25568991 5.43956413 17.43885889 6 26 C5.01 25.67 4.02 25.34 3 25 C2.67 20.38 2.34 15.76 2 11 C1.01 10.67 0.02 10.34 -1 10 C-0.67 6.7 -0.34 3.4 0 0 Z " fill="#F7EEE4" transform="translate(199,184)"/>
<path d="M0 0 C0.33 0 0.66 0 1 0 C1.22506224 4.45765572 1.4272243 8.91605688 1.625 13.375 C1.68945312 14.64601563 1.75390625 15.91703125 1.8203125 17.2265625 C1.871875 18.43828125 1.9234375 19.65 1.9765625 20.8984375 C2.02893066 22.01911621 2.08129883 23.13979492 2.13525391 24.29443359 C2 27 2 27 0 29 C-0.45811675 30.97235333 -0.45811675 30.97235333 -0.625 33.125 C-0.74875 34.40375 -0.8725 35.6825 -1 37 C-1.66 37 -2.32 37 -3 37 C-2.86722656 36.34 -2.73445313 35.68 -2.59765625 35 C-0.53157046 23.41785483 -0.35298454 11.73601857 0 0 Z " fill="#F7E0D0" transform="translate(492,489)"/>
<path d="M0 0 C0.66 0 1.32 0 2 0 C2 3.96 2 7.92 2 12 C1.34 12 0.68 12 0 12 C0 12.66 0 13.32 0 14 C-5.94 14 -11.88 14 -18 14 C-18 13.67 -18 13.34 -18 13 C-16.95199219 12.96261719 -15.90398437 12.92523437 -14.82421875 12.88671875 C-13.44527695 12.82105485 -12.06637229 12.75460765 -10.6875 12.6875 C-9.65206055 12.65366211 -9.65206055 12.65366211 -8.59570312 12.61914062 C-5.71635939 12.46613202 -3.49664612 12.31533087 -1.03125 10.75 C0.31308822 8.46869878 0.3018847 6.94334804 0.1875 4.3125 C0.16042969 3.50425781 0.13335937 2.69601562 0.10546875 1.86328125 C0.05326172 0.94095703 0.05326172 0.94095703 0 0 Z " fill="#F6F3E8" transform="translate(486,619)"/>
<path d="M0 0 C3 1 3 1 4 3 C4.66 3 5.32 3 6 3 C6.25 10.5 6.25 10.5 4 15 C3.34 12.03 2.68 9.06 2 6 C1.34 6 0.68 6 0 6 C0 4.02 0 2.04 0 0 Z " fill="#F4B796" transform="translate(490,181)"/>
<path d="M0 0 C0.33 0 0.66 0 1 0 C1.25075834 7.27199191 1.25075834 7.27199191 0.03125 10.8125 C-1.13044289 14.40318713 -1.4120314 17.61255473 -1.625 21.375 C-1.69976562 22.62023437 -1.77453125 23.86546875 -1.8515625 25.1484375 C-1.90054688 26.08945312 -1.94953125 27.03046875 -2 28 C-2.33 28 -2.66 28 -3 28 C-3.33706931 18.16256984 -3.02149686 9.49613298 0 0 Z " fill="#F9EFE2" transform="translate(117,532)"/>
<path d="M0 0 C0.33 1.32 0.66 2.64 1 4 C2.32 4 3.64 4 5 4 C5 6.31 5 8.62 5 11 C3.68 11 2.36 11 1 11 C-0.20272819 8.59454362 -0.10071472 7.05003047 -0.0625 4.375 C-0.05347656 3.55773437 -0.04445312 2.74046875 -0.03515625 1.8984375 C-0.02355469 1.27195312 -0.01195312 0.64546875 0 0 Z " fill="#F6FAF6" transform="translate(40,352)"/>
<path d="M0 0 C0.33 0 0.66 0 1 0 C1 4.29 1 8.58 1 13 C-0.32 13.33 -1.64 13.66 -3 14 C-4.53166168 9.91556885 -3.63081652 6.20544343 -3 2 C-2.34 2.33 -1.68 2.66 -1 3 C-0.875 9.75 -0.875 9.75 -2 12 C-1.34 12 -0.68 12 0 12 C0 8.04 0 4.08 0 0 Z " fill="#F3B492" transform="translate(50,350)"/>
<path d="M0 0 C0.33 0.66 0.66 1.32 1 2 C-3.62 3.32 -8.24 4.64 -13 6 C-11 2 -11 2 -9.3125 0.75 C-6.16454282 -0.27095909 -3.28456632 -0.12632947 0 0 Z " fill="#EC8F6F" transform="translate(228,224)"/>
<path d="M0 0 C0.33 0 0.66 0 1 0 C1.33 1.98 1.66 3.96 2 6 C3.32 5.34 4.64 4.68 6 4 C4.40279281 8.3124594 1.68366181 10.42143673 -2 13 C-4.375 12.8125 -4.375 12.8125 -6 12 C-4.35 11.67 -2.7 11.34 -1 11 C-1.20625 10.484375 -1.4125 9.96875 -1.625 9.4375 C-2.15887026 5.96734329 -1.07676761 3.29364209 0 0 Z " fill="#F6EDE1" transform="translate(528,356)"/>
<path d="M0 0 C4.52164861 0.34436397 6.5815314 0.61302245 10.171875 3.6171875 C10.81125 4.4215625 11.450625 5.2259375 12.109375 6.0546875 C10.35797357 5.60173885 8.60830156 5.14210002 6.859375 4.6796875 C5.88484375 4.42445313 4.9103125 4.16921875 3.90625 3.90625 C1.45100197 3.15870241 -0.64679905 2.28344933 -2.890625 1.0546875 C-1.890625 0.0546875 -1.890625 0.0546875 0 0 Z " fill="#EB8E6F" transform="translate(54.890625,223.9453125)"/>
<path d="M0 0 C0.33 0 0.66 0 1 0 C1.99 6.93 2.98 13.86 4 21 C3.34 20.67 2.68 20.34 2 20 C1.59270772 17.67843403 1.25561323 15.3431213 1 13 C0.34 13 -0.32 13 -1 13 C-2.12758089 9.61725734 -1.81750262 8.23221777 -1.0625 4.8125 C-0.86785156 3.91144531 -0.67320312 3.01039063 -0.47265625 2.08203125 C-0.23869141 1.05142578 -0.23869141 1.05142578 0 0 Z " fill="#F9F3EA" transform="translate(442,416)"/>
<path d="M0 0 C0.33 0.66 0.66 1.32 1 2 C2.65 1.34 4.3 0.68 6 0 C6.103125 0.61875 6.20625 1.2375 6.3125 1.875 C6.87525373 4.36526484 6.87525373 4.36526484 10 6 C9.01 6.33 8.02 6.66 7 7 C7.33 7.66 7.66 8.32 8 9 C4.63704165 7.55873214 2.37072898 5.79407345 0 3 C0 2.01 0 1.02 0 0 Z " fill="#F7F1E5" transform="translate(332,359)"/>
<path d="M0 0 C2.34770643 3.52155964 2.37669614 5.50771843 2.625 9.6875 C2.69976562 10.86699219 2.77453125 12.04648438 2.8515625 13.26171875 C2.90054687 14.16535156 2.94953125 15.06898438 3 16 C2.01 16.33 1.02 16.66 0 17 C0 11.39 0 5.78 0 0 Z " fill="#F5F0E7" transform="translate(494,196)"/>
<path d="M0 0 C2.44951358 2.44951358 2.3494214 3.30424538 2.4375 6.6875 C2.33739 11.29255986 1.42984269 14.16461179 -1.48828125 17.7265625 C-3.81903829 19.68993923 -6.02222188 19.93074935 -9 20 C-8.2575 19.443125 -7.515 18.88625 -6.75 18.3125 C-1.63380766 14.24993487 -1.63380766 14.24993487 0.24609375 8.234375 C0.24962773 5.47786786 0.17342067 2.75064451 0 0 Z " fill="#F1B79B" transform="translate(413,80)"/>
<path d="M0 0 C0.99 0.33 1.98 0.66 3 1 C2.67 7.93 2.34 14.86 2 22 C1.67 22 1.34 22 1 22 C0.67 14.74 0.34 7.48 0 0 Z " fill="#F6F0E5" transform="translate(252,311)"/>
<path d="M0 0 C0.33 0 0.66 0 1 0 C1 4.95 1 9.9 1 15 C0.01 15.33 -0.98 15.66 -2 16 C-1.34 10.72 -0.68 5.44 0 0 Z " fill="#F5EFE0" transform="translate(411,516)"/>
<path d="M0 0 C0.33 0 0.66 0 1 0 C1.66 5.61 2.32 11.22 3 17 C2.01 16.67 1.02 16.34 0 16 C0 10.72 0 5.44 0 0 Z " fill="#F6EEDF" transform="translate(162,515)"/>
<path d="M0 0 C0.33 0 0.66 0 1 0 C1.33 2.97 1.66 5.94 2 9 C2.99 9 3.98 9 5 9 C4.49396008 11.16874252 4.00016187 12.99967627 3 15 C2.01 14.67 1.02 14.34 0 14 C0 9.38 0 4.76 0 0 Z " fill="#F4B79A" transform="translate(523,350)"/>
<path d="M0 0 C2.56616632 3.84924948 2.55097676 6.4349304 3 11 C1.68 11.33 0.36 11.66 -1 12 C-1.02712066 10.56260487 -1.04645067 9.12506137 -1.0625 7.6875 C-1.07410156 6.88699219 -1.08570313 6.08648437 -1.09765625 5.26171875 C-1 3 -1 3 0 0 Z " fill="#F5EFE6" transform="translate(491,184)"/>
<path d="M0 0 C0.33 0 0.66 0 1 0 C1.33 1.65 1.66 3.3 2 5 C2.33 5 2.66 5 3 5 C2.67 9.62 2.34 14.24 2 19 C1.67 19 1.34 19 1 19 C0.17648136 12.61773055 -0.12086218 6.43255401 0 0 Z " fill="#F4B295" transform="translate(375,396)"/>
<path d="M0 0 C0.33 0 0.66 0 1 0 C1.19401633 1.81181405 1.38004375 3.62448532 1.5625 5.4375 C1.66691406 6.44683594 1.77132813 7.45617187 1.87890625 8.49609375 C1.93884766 9.73552734 1.93884766 9.73552734 2 11 C1.67 11.33 1.34 11.66 1 12 C0.76807135 13.51469448 0.58784762 15.03754562 0.4375 16.5625 C0.35371094 17.38878906 0.26992188 18.21507812 0.18359375 19.06640625 C0.12300781 19.70449219 0.06242187 20.34257812 0 21 C-0.33 21 -0.66 21 -1 21 C-1.18451025 6.21867882 -1.18451025 6.21867882 0 0 Z " fill="#F1B599" transform="translate(376,333)"/>
<path d="M0 0 C0.33 0 0.66 0 1 0 C1.625 3.375 1.625 3.375 2 7 C1.34 7.66 0.68 8.32 0 9 C-0.45811675 10.97235333 -0.45811675 10.97235333 -0.625 13.125 C-0.74875 14.40375 -0.8725 15.6825 -1 17 C-1.99 17 -2.98 17 -4 17 C-2.68 11.39 -1.36 5.78 0 0 Z " fill="#F6EDE2" transform="translate(358,260)"/>
<path d="M0 0 C2.67927341 4.01891012 2.15601248 6.24161923 2 11 C1.01 11 0.02 11 -1 11 C-2.31625194 8.36749612 -1.74813658 7.19820944 -1.0625 4.375 C-0.86785156 3.55773437 -0.67320313 2.74046875 -0.47265625 1.8984375 C-0.23869141 0.95871094 -0.23869141 0.95871094 0 0 Z " fill="#F5ECE3" transform="translate(82,184)"/>
<path d="M0 0 C0.33 0.99 0.66 1.98 1 3 C1.66 3 2.32 3 3 3 C2.67 3.99 2.34 4.98 2 6 C-0.0625 6.6875 -0.0625 6.6875 -2 7 C-2 6.34 -2 5.68 -2 5 C-2.66 4.67 -3.32 4.34 -4 4 C-2.68 2.68 -1.36 1.36 0 0 Z " fill="#F8AE89" transform="translate(534,363)"/>
<path d="M0 0 C0.99 0 1.98 0 3 0 C3 5.28 3 10.56 3 16 C2.67 16 2.34 16 2 16 C1.34 10.72 0.68 5.44 0 0 Z " fill="#F7F6EE" transform="translate(246,248)"/>
<path d="M0 0 C0.33 0 0.66 0 1 0 C1 1.98 1 3.96 1 6 C0.34 6 -0.32 6 -1 6 C-0.67 6.66 -0.34 7.32 0 8 C0.13415472 10.6723621 0.04318541 13.32250488 0 16 C-0.33 16 -0.66 16 -1 16 C-1.22197585 13.89722877 -1.42713637 11.79267698 -1.625 9.6875 C-1.74101562 8.51574219 -1.85703125 7.34398437 -1.9765625 6.13671875 C-2 3 -2 3 0 0 Z " fill="#F4B89C" transform="translate(443,400)"/>
<path d="M0 0 C0.66 0 1.32 0 2 0 C2.33 3.96 2.66 7.92 3 12 C1.35 12.33 -0.3 12.66 -2 13 C-1.34 12.34 -0.68 11.68 0 11 C0.24315656 8.33050591 0.24315656 8.33050591 0.125 5.375 C0.10695312 4.37210938 0.08890625 3.36921875 0.0703125 2.3359375 C0.04710937 1.56507813 0.02390625 0.79421875 0 0 Z " fill="#F6F7EF" transform="translate(194,618)"/>
<path d="M0 0 C1.32 0.66 2.64 1.32 4 2 C-0.95 4.475 -0.95 4.475 -6 7 C-5.67 5.68 -5.34 4.36 -5 3 C-3.35 3 -1.7 3 0 3 C0 2.01 0 1.02 0 0 Z " fill="#F7F4EC" transform="translate(112,96)"/>
<path d="M0 0 C0.33 0 0.66 0 1 0 C3.48351814 5.55139349 2.85330338 10.16524985 2 16 C1.67 16 1.34 16 1 16 C0.67 10.72 0.34 5.44 0 0 Z " fill="#F4A480" transform="translate(433,168)"/>
<path d="M0 0 C0.33 0 0.66 0 1 0 C1.61538462 7.26153846 1.61538462 7.26153846 -1.5 11 C-2.325 11.66 -3.15 12.32 -4 13 C-3.29666462 10.02277453 -2.41751463 7.14743457 -1.4375 4.25 C-1.16808594 3.45078125 -0.89867187 2.6515625 -0.62109375 1.828125 C-0.41613281 1.22484375 -0.21117187 0.6215625 0 0 Z " fill="#FAF6EE" transform="translate(413,83)"/>
<path d="M0 0 C1.32 0.66 2.64 1.32 4 2 C3.67 3.32 3.34 4.64 3 6 C3 5.01 3 4.02 3 3 C2.34 3 1.68 3 1 3 C0.67 3.66 0.34 4.32 0 5 C-0.99 5.495 -0.99 5.495 -2 6 C-1.125 1.125 -1.125 1.125 0 0 Z " fill="#F6EBE0" transform="translate(432,348)"/>
<path d="M0 0 C0.95278709 3.2425496 1.19541781 6.25000153 1.25 9.625 C1.27578125 10.58664063 1.3015625 11.54828125 1.328125 12.5390625 C1.21984375 13.35117188 1.1115625 14.16328125 1 15 C0.01 15.66 -0.98 16.32 -2 17 C-1.85899143 14.72886197 -1.71203245 12.45809275 -1.5625 10.1875 C-1.48128906 8.92292969 -1.40007812 7.65835938 -1.31640625 6.35546875 C-1 3 -1 3 0 0 Z " fill="#F7EBDD" transform="translate(79,196)"/>
<path d="M0 0 C0.33 0.99 0.66 1.98 1 3 C-0.18244247 4.53397943 -1.37312242 6.06670203 -2.67578125 7.5 C-4.21271929 9.17302042 -4.21271929 9.17302042 -6 12 C-5.43958106 7.23643901 -3.41302403 3.41302403 0 0 Z " fill="#F1BCA0" transform="translate(356,123)"/>
<path d="M0 0 C1.98 0 3.96 0 6 0 C4.35830472 2.02054804 2.69088222 4.02043058 1 6 C0.67 6 0.34 6 0 6 C0 4.02 0 2.04 0 0 Z " fill="#FC2AB0" transform="translate(0,0)"/>
<path d="M0 0 C0.99 0 1.98 0 3 0 C2.67 3.96 2.34 7.92 2 12 C1.67 12 1.34 12 1 12 C0.67 8.04 0.34 4.08 0 0 Z " fill="#F7F2EA" transform="translate(538,248)"/>
<path d="M0 0 C0.33 0.99 0.66 1.98 1 3 C1.66 3 2.32 3 3 3 C2.67 5.64 2.34 8.28 2 11 C1.67 11 1.34 11 1 11 C0.67 7.37 0.34 3.74 0 0 Z " fill="#F9F5EB" transform="translate(410,578)"/>
<path d="M0 0 C0.66 0.33 1.32 0.66 2 1 C2.625 3.5625 2.625 3.5625 3 6 C1.35 6 -0.3 6 -2 6 C-1.125 1.125 -1.125 1.125 0 0 Z " fill="#F9F4EC" transform="translate(518,295)"/>
<path d="M0 0 C0.66 0.66 1.32 1.32 2 2 C1.625 4.625 1.625 4.625 1 7 C0.34 7 -0.32 7 -1 7 C-1.33 7.66 -1.66 8.32 -2 9 C-1.34 6.03 -0.68 3.06 0 0 Z " fill="#F7EADC" transform="translate(481,554)"/>
<path d="M0 0 C0.33 0 0.66 0 1 0 C2.10228696 4.40914783 2.07654536 8.48382401 2 13 C1.67 13 1.34 13 1 13 C0.855625 12.236875 0.71125 11.47375 0.5625 10.6875 C0.0367406 7.91827092 0.0367406 7.91827092 -1 5 C-0.5625 2.3125 -0.5625 2.3125 0 0 Z " fill="#F2C2A6" transform="translate(486,307)"/>
<path d="M0 0 C0.99 0 1.98 0 3 0 C2.34 3.3 1.68 6.6 1 10 C0.67 10 0.34 10 0 10 C0 6.7 0 3.4 0 0 Z " fill="#F8F4ED" transform="translate(39,222)"/>
<path d="M0 0 C0.33 0 0.66 0 1 0 C1 2.64 1 5.28 1 8 C0.01 7.67 -0.98 7.34 -2 7 C-2.125 4.625 -2.125 4.625 -2 2 C-1.34 1.34 -0.68 0.68 0 0 Z " fill="#F1BC9E" transform="translate(83,179)"/>
<path d="M0 0 C0.99 0 1.98 0 3 0 C3 2.64 3 5.28 3 8 C1.5 6.8125 1.5 6.8125 0 5 C-0.1875 2.3125 -0.1875 2.3125 0 0 Z " fill="#F5F1E7" transform="translate(109,38)"/>
</svg>
